<?xml version="1.0" encoding="utf-8"?>
<!-- Generator: Adobe Illustrator 25.0.1, SVG Export Plug-In . SVG Version: 6.00 Build 0)  -->
<svg version="1.1" id="girl" xmlns="http://www.w3.org/2000/svg" xmlns:xlink="http://www.w3.org/1999/xlink" x="0px" y="0px"
	 viewBox="0 0 1032.1 1738.9" style="enable-background:new 0 0 1032.1 1738.9;" xml:space="preserve">
<style type="text/css">
	.st0{fill:none;stroke:#000000;stroke-miterlimit:10;}
	.st1{fill:none;stroke:#C0B5A3;stroke-miterlimit:10;}
	.st2{fill:#C0B5A3;}
</style>
<path class="st0" d="M474.4,1707.1c-8.6-25.2-11.6-50.5-8.9-77.3c1.5-14.5,11.8,16.8,18.7,30.9s9.5,17.8,22,31.6
	c12.5,13.8-8.5-13.1-16.1-26.3c-7.6-13.2-26.8-55.7-37.5-75.3c-11.3-20.7-22.9-36.7-42.1-57.5c-15.9-17.3-30.8-33.1-48-57.5
	c-21.4-30.4-40.3-59.3-52.3-101.6c-9.1-32.2-5.6-68.3,0.3-91.1c6-23.2,13.9-52.2,26.3-73.3c18.5-31.6,34.7-55.2,62.8-81.2
	c31.8-29.5,51.2-56.6,57.9-88.8c4.1-19.9,6.6-53.6,3.9-71.4c-2.6-17.8,1.3-3.3,8.5,6.6c7.2,9.9,13.8,19.1,11.8,13.2
	c-2-5.9-3.3-5.3-8.5-12.8c-5.3-7.6-18.1-28.3-28.3-51.3c-5.8-13-18.2-36.1-31.3-57.6c-10.9-17.9-25-37.9-29.6-73.8
	c-2.3-17.7,0.5-29.5,6.4-44.2c8.5-21,15-39.7,20.2-61.4c2.6-10.7,9.5-14,6.4-13.8s-14.3,12.6-17.9,24.9
	c-5.4,18.6-10.2,34.7-15.3,49.2c-4.3,12.2-11.5,32.2-14,41.5c-3.5,12.7-8.4,26.8-10.7,40.1c-2.9,17.3-3.7,42.9-5.7,61.5
	s-7.7,48-11.3,68.4c-3.9,22.5-6.8,53.1-10.9,81.6c-1.7,11.8-22.8,71-27.3,84.5c-13.4,40.3-28.7,88.6-45.3,141.1
	c-6.9,21.9-19.7,67.3-22,84c-1.6,11.5-2.9,21.3-1.1,32.5c0.8,4.7,2.5,10.8,5.3,16.8c2.7,6,7,13.3,8.5,24.8c1.6,12.2,1.3,29-2.5,45.6
	c-3,12.7-3.8,23.4-5.5,30.2c-1.6,6.8-0.8,29.5-1.8,35.7c-1,6.1-3.3,15.6-4,20.6c-0.7,5.1-2.4,9.4-4.1,10.9
	c-1.6,1.4-6.8,1.1-10.4,0.4c-3.6-0.7-7-3.1-8.9-5.6s-2.5-9.6-3.7-13.9c-1.2-4.4,0-14.9,0-17.8s2.7-16.4,3.2-20.4
	c0.4-4.1,0.5-10.8,0.4-13.9c-0.1-3.2-0.9-9.3-3.1-9.2c-4,0.2-9.7,2-9.8,7.6c-0.1,2.5,0.6,5,0.6,7.5c-0.1,3.5-1.4,6.8-3.1,11.1
	c-1.5,3.9-3.5,6.5-3.4,9.4c0.1,2.2,1.4,3.4,2,5.8c1.7,7.5-0.8,16.8,3.5,22.5c2.4,3.2,5.7,4.8,9.3,4.3c0.9-0.1-0.4-2.8-1.2-5.8
	s1.6-7-1.2-9.1c-2-1.5-5.7-4.8-7.7-2.1c-2.1,2.8-2.5,5.5-0.6,11.2c3.7,11.3,10.6,16.8,18.2,22c2.9,1.9,4.7,5.4,7.5,7.2
	c2.7,1.7,6.7-2.5,7.6-5c0.9-2.5-0.2-2.7-1.1-2.6c-0.9,0.1-5.9,0-10.1-1.3s-5.8-3.2-7.9-5.4c-2.1-2.2-2.2-6.7-3.6-7.2
	c-1.4-0.5-4.5,0.7-7.1-2.5s-4.5-3.6-4.2-1.3s1.3,3.1,4.2,5.6s2,5.7,8,10.1c4.7,3.5,10.2,8.1,11.4,9.2c2.6,2.5,4.7,6.2,5.7,9.5
	c1.2,4.2,1.1,7.4-1,9.7c-2.1,2.3-8.1,2-11.4,0.9c-6.4-2.1-12.5-5.6-16.6-8.6c-2.5-1.8-4.5-4.5-6-5.8c-1.4-1.3-3.4-2.3-4.5-3.7
	c-2.1-2.6-3.6-4.8-5.6-7.1c-1.2-1.4-3.4-2.5-6.7-4.5c-3.5-2.1-6.4-4.8-6.8-8.8c-0.4-4.4-0.3-6.6-0.1-11.6c0.3-10.1-1-19.5-3.8-28.2
	c-1.1-3.5-1.8-7.6-3.4-10.2c-3.9-6.3-3.9-2.3,0.4,7c4.3,9.4,5.4,29.4,5.5,39.1c0.1,6.5-0.1,9.2-3,7.1c-4-2.9-8-10.7-8.4-17.3
	c-0.4-6.7-5.9-29-7.4-34.8s-5.9-18.4-9-27s-1.6-16-2-21.1s2.3-13.7,5.1-18.8c2.7-5.1,16.2-41.5,20.9-56.6s4.7-46.1,11.3-75.6
	c6.3-27.7,12.8-127.8,17.9-162.5c6.3-43.1,14.9-69.8,25.5-97.3c21.8-56.5,30.8-112.1,34-154c4.5-59,0.3-117.5,9.1-184.2
	c4.4-33.2,7.9-58.9,12.7-87.8c5.7-35,11.5-60.3,22.4-84c11.8-25.5,33.2-36.7,47.4-40.9c10.9-3.2,36.1-10,44.3-14.4
	c2.1-1.2,4.1-2.7,5.9-4.3c4.1-3.5,7.9-7.5,11.6-11.5c3.3-3.5,6.7-6.9,9.9-10.5c1.9-2.1,4-4.1,5.7-6.3c1.5-2,3.3-4.2,4.5-6.4
	c1.6-3,2.8-5.9,4-8.9c1.5-3.7,1.6-6.2,1.4-9.8c-0.1-0.8,0-2-0.8-1.9c-0.5,0-0.6,1-0.7,1.7c-1.4,6.6-2.9,11.4-5.8,17
	c-1.6,3.2-3.2,6.1-4.7,8.2c-1.8,2.5-4,4.5-6,6.8c-1.6,1.9-4.7,4-6.4,5.8c-1,1.1-1.9,1.1-1.5,0c3-8,3-14.1,3.2-21.2
	c0.2-7.4-1.2-35.5,1.2-33.8c2.5,1.7,15,8.5,22.2,11c0.1,2.7,0.5,5.2,0.9,7.7c0.9,5.1,2.1,10.5,4.9,14.9c1.7,2.7,4.1,4.8,6.3,7.1
	c3.6,3.9,8.8,8.9,13.7,12.8c1,0.8,2.6,1.7,3.6,1.3c1.4-0.6-0.7-4-1.2-4.8c-1.1-1.7-2.9-3.1-4.4-4.4c-2.4-2.1-4.8-4.1-7.2-6.2
	c-4.2-3.7-7.9-8.1-10.4-12.9c-1.9-3.6-3-8.4-3.6-11.8c-1.2-6.2,1.8-2,16.3,0.4c2,0.3,5.6,0,8.4-2.1c3.9-3.1-8.6-2.2-15.6-2.5
	s-12.9-3.8-19.1-6.4s-14-6.7-19.9-11.6c-6-4.9-8.8-13.1-15.9-22.1c-10.7-13.7,4.8-23.3,13.3-30.9c2.2-2,1.4-5.2-0.2-4.7
	c-2.2,0.6-2.8,3.8-2.1,8.3c0.4,2.5,4.3,4.6,7.9,4.5c13.1-0.4,26.8-2.4,37.9-5.4c8.4-2.2,25.8-6.9,44.1-14.5
	c18.2-7.6,7.7-8.6,3.9-7.1c-3.8,1.5-17.6,3.9-21.6,5.3s-13.4,2.1-18.1,4.1c-4.6,2-7.8,1.5-11.6,2.8c-3.7,1.2-2.8,1.9-6.4,3.2
	s-6.2,0.2-11.3,2.1c-5.2,1.9-17.3,4.7-21,4.6s0.3-2.8,2.4-4.5s13.8-9.8,17.6-11.8c3.9-2,12.3-2,16.4-2.3c2-2.8,12.3-5.8,18.3-7.4
	s20.7-0.1,26.1,0.7s14.1,0.7,14.1,3s-2.3,5.4-5.3,7.2c-6.5,3.7-16.2,5.9-24.3,10.4c-6.2,3.4-13.1,7.7-21.9,9.4c-5.1,1-10.4,0.4-17,0
	s-12,0.3-17.9,1.5c-3.1,0.6-3.6,2.7,0.6,7.2c4.2,4.4,13.7,8.7,20.5,9.9c6.8,1.2,15.5-1.1,23.2-3s19.3-10.1,23.3-13
	c4.1-2.9,13.1-15.1,15.5-20.6s5.8-8.9,5-10.1c-0.9-1.2,0,0-5.4-2.8s-7-4.1-5.1-4.5c2-0.4,8.3,2.9,14.4,8.9c6.2,6.1,6.3,12.8,6.9,8.5
	c0.7-4.3-3.1-13.9-7.6-19.8s-10.1-6.5-15.7-11.5S465.8,297,458,286.7c-7.8-10.2-12.1-25.9-11.9-28.3s2.4-10.4,6.9-7.6
	c7.2,4.4,13.3,7.1,23,6.2c15.9-1.6,24.7-6.5,26.6-17.1c0,0-6.5,8-16.1,10.7c-9.1,2.5-16.3,3.8-21.8,2.4c-4.3-1.1-13.6-3.3-10-3.8
	c5.5-0.8,10.5-0.2,17.9-2.3c15-4.2,22.9-3.8,30.9-9c2.4-1.6,1.4-4.1,2.9-5.7c2.3-2.4,4.8-2.4,3-0.4c-2.8,3.3-6.4,4.1-9.9,5.2
	c-5.1,1.6-12,3.6-21.4,6.1c-5.8,1.6-7.6,2-12.8,2c-4,0-8.7-1.8-11.7,1.3c-2.4,2.4-2.6-1.2-0.6-2.4c3.3-2,6.6-1.4,11.5-1.5
	c13-0.1,25.3-3.9,34.8-8.7c4.3-2.2,6-4.9,3-6.7c-4.3-2.5-17.7-3.2-26.9-2.4c-7.4,0.6-14.3,1.5-18.5,6.5c-4.9,5.8-8.8,12-10.9,19.3
	c-2.8,9.8-12.6-6.3-10.3-19c0.9-4.9,4.4-7,10.9-9.9c7.2-3.2,17.4-6.9,27.1-9.2s21.1-2.5,27.1-1.1c11.1,2.5,19.2,11.6,18.4,5.2
	c-1-7.6-12-11.9-18.2-13.4c-7.3-1.8-18.8-2.7-29.8-1.1c-13.2,1.9-21.3,3.5-30.8,9.3c-5.2,3.2-10.9,6.9-11.2,12.9
	c-0.6,11.7,3.7,21.2,9.4,31.4c6.3,11.5,9.5,22.9,18.2,32.6c2.1,2.4,5.7,9.3,5.3,14c-0.4,4.7-4.1,6-5.4,6.5c-1.4,0.4-2.2-0.6-5.8-0.7
	c-3.6-0.1-7.8,1-10.1,2.2c-3.3,1.6-6.6,3.4-7.1,6.7c-0.2,1.2,0.1,2.1-0.4,2.9c-1.3,2.1-4.4,1.9-7.5,1.3c-4.4-0.9-7.7-2.8-11.8-3.6
	c-1.4-0.3-3.2-0.3-4.3,1.6c-0.8,1.4,4.5,1.2,2.9,1.6c-4,0.9-6.4-0.3-8.4-2.6c-2.1-2.4-3.5-5.5-2.1-10c2.1-6.6,4.5-11.7,6.4-18.9
	c3.1-11.4,1-21.3,1-30.1s-8.5-15.8-11.9-20.8c-3.5-5-10-6.6-17-8.3c-7.3-1.8-15.8-1.3-23.2-0.9c-6.6,0.3-13.1,2.1-17.5,7.3
	c-2.8,3.3-7.4,8.7-4,15.1c3.1-6.9,18.3-9.7,26.5-11.8c8.1-2.1,20.6-2.7,29.8,2.1c9.8,5.1,13.7,12.7,14.5,22.5
	c0.6,6.8-8.4,5.3-14.9,9.7c-3,2.1-10.6,8.3-15.6,8.8c-3.6,0.4-7-0.8-10.2-2.4c-0.9-0.4-5.3-2.2-5.1-3.7c0.4-2,6.8-1.7,8.2-1.3
	c2.7,0.7,5.3,1.2,8.1,1.2c6.8-0.2,14.5-6.9,17.7-10.6c3.1-3.6-9.9,1.7-15.1,3.1s-14.5,2.1-22.3,4.7c-5.9,1.9-9,3.4-12.6,2.1
	c-2.2-0.8-3-3.3-0.7-4.4c1.8-0.8,4.1-0.5,5.3-1.5c1.2-1,1.8-2,2.6-3c1.7-2.1,3.9-1.1,5.8-0.6c2.3,0.7,5.1,0.8,6.9,0.7
	c4.6-0.3,10.1-2.1,15.1-3.5c4.7-1.4,14-1.6,19.2,0s4.7-1,3.8-2.6c-0.9-1.6-3.7-4.7-7.6-7.4c-4.1-2.9-9.4-5.6-17.3-7.2
	c-7.8-1.6-16.2-0.8-22.6,5.7c-3.8,3.9-6.7,8.1-9.5,12.6c-1.7,2.7-4.1,6.4-4.4,9.7c-0.2,2.1-1,3.8-1.6,5.5c-0.8,2.6-2.3,6.1-1.7,9
	c0.6,3.1,5.9,29.7,8.6,35.3c3.4,7.1,7.3,13.8,11.1,20.6c3.7,6.5,7.2,13.1,11.1,19.5c3.1,5.2,6.5,10.2,10.3,15
	c4.5,5.7,9.4,11.2,13.9,16.9c3.9,5,7.8,10.2,13.4,13.3c7.1,3.9,15.3,9.2,25.6,11.7c10.3,2.5,10.5,2.5,22.4,2.1
	c19.4-0.6,40.7-9.8,65.4-25.9c16.6-10.9,33.3-33.2,39.8-44.4c4.1-7.2,5.7-21,6-29.1c0.4-8.2-1.4-14.8,0-22.7c1.8-10.4,6.6-20,9-33.7
	c0.9-5.2-3.5-11.9-8-28.6c-4.6-17.2-19-41.5-32.4-62.1c-13.9-21.3-37.6-32.1-55.3-43.5c-13.6-8.7-27.3-14.9-41.2-17.5
	c-8.2-1.6-17.2-5.6-21-11.8c-4.4-7.4-2.1-13.7,3.8-19.1c7.5-6.8,3.6-18.7,0-10.7c-3.7,8.1-8.5,14.5-12.9,22.5
	c-2.6,4.6-2.7,9.7,1.5,15.6c4.4,6.2,3,14.6-2,21.7c-7.4,10.5-17.8,16.4-27.3,23.3c-9.5,6.9-27.1,12.2-34.7,17.2s-10,17.8-13.3,29.7
	c-2.7,9.5-2.7,18.3-1.8,27.9c0.5,4.9,0.9,10.6,1.9,15.5c1.4,6.7,5.5,20.7,6.3,27.7s-1.1,8.8-1.9,3.6c-0.8-5.2-5-14.2-6.3-20
	c-1.3-5.8-3.9-12.4-5.8-16.7c-1.9-4.4-4.8-8.1-6.3-10.9c-2.4-4.7-3.2-10.6-4.5-18.3c-0.6-3.8-0.8-11.2-1.5-15
	c-4.1-22.4-4.1-39.6,3.7-60.1c6.8-18,21.8-35.9,35.7-49.6c16.4-16.2,42.6-32.2,68-35.4c15-1.9,30.1-1.3,41.6-1.6
	c14.8-0.3,26.4-2.1,40.1-0.8c15.2,1.3,33.2,14.3,43.5,25.2c8.4,9,26.5,32.1,34.1,54.6c2.4,7.1,3.6,13,7,17.6
	c9,12.5,14.2,24,15.4,37.8c0.6,6.9-5,14.1-5.2,21.8c-0.2,6.6,6.1,8.9,9.8,15s3.7,26.3,3.7,33.7c0,7.4-1.3,13-4.6,22.4
	c-3.3,9.3-13.3,17-16.7,18.5c-3.5,1.5-5.1,2.1-7.7-5.1c-2.7-7.5-1.2-15,0.9-21.5c3.2-9.8,0.1-20,2.3-28.2c2.3-8.7,9-10.1,13.7-5
	c5.6,6.1,8.4,9.5,8,17.5c-0.5,9.9-4,14.8-10.3,13.3c-4-0.9-3.2-6.9-7.3-3.9c-3.3,2.4-4.2,8.3-5.3,13.7c-0.8,4-3.8,8-5.1,13.2
	c-6.9,27.1,0.7,67.1,1.7,97c0.5,13.9,1.8,51.1,7.6,57.8c7,8.1,15.5,12.4,22.6,14.2c3.9,1,7.5,2,9.8,1c1.9-0.8,3.7-2,5.9-1.6
	c4.1,0.7,12.6,18.4,17,20.3c4.3,2-12.6-16.3-14.4-23.9c-1.8-7.6,5.3-17.5,23.5-35.8c23.1-23.1,46.1-39.8,64-55.8
	c17.2-15.4,42.1-32.1,56.3-48.7c8.9-10.4,17.6-25.3,24.7-36.4c11.6-18.3,35.2-47.5,43.4-56.9s18.2-17,25.8-21.1s16.9-6.2,13.5-11.7
	c-1.9-3.1-8.2-1.8-13.5,3.5c-8.2,8.1-12.5,18.6-22.9,20.5c-10.6,2-19.4-2.2-30.9-4.7c-20-4.5-45.9-8.2-71.8-8.8
	c-17.2-0.4-32.2,1.5-51.8,5.7c-19.7,4.2-37.5,4.5-54.5,7.2c-9.8,1.6-18.6,12.4-25.2,6.5c-5.5-4.9-10.3-11.9-7-20.2
	c5.2-13.1,1.3-25.3-2.9-36.8c-2.2-5.9-16-18.1-8.4-17.9c30.1,0.9,56.8-6,88.8-13.7c46.5-11.2,97.4-19.6,133.8-22.9
	c40.6-3.7,79.7-4.7,111.5-10c13.6-2.3,29.9,0,39.3,9.4s14.1,30.3,6.5,49.3c-6.7,16.6-13,39.9-22.3,58.1
	c-22.4,43.8-61.9,136.9-74.5,160.2c-18.5,34.2-41.1,62.2-66.9,86.3c-22.8,21.2-40.8,46.6-56.3,73.6c-6.5,11.2-18.4,37.2-18.6,25.6
	c-0.2-12.6,2.3-22.2,2-30.9c-0.3-10.3-1.4-16.5-2.6-25.5c-1.5-11.9-2.9-23.7-4.1-34.9c-1.5-14.5-7.4-18.8-5-4.9
	c1.8,10.6,3.5,27.4,4.8,46.1c1.5,22.1-0.9,39,3,69c3.1,24,18.8,39.7,35.4,52.1c14,10.5,30.5,30.4,36.2,48.4
	c5.9,18.5,10.6,39.1,9.3,58.8c-0.8,12.5-4.7,32.2-10.1,42.6c-5.7,10.8-17.7,15.4-32.4,15.2c-25.4-0.4-51.3-11.8-71.1-37.5
	c-19.7-25.5-46.6-40.5-76.5-41.7c-10.5-0.4-17.8,3.5-22.2,10.5c-2.1,3.3-2,7.9,0.4,11.2c2.3,3.3,9,3.2,11.4-1.5
	c1.8-3.7,0.2-10.2-2.5-13.2c-2.8-3-8.2-4-12.2-2.7c-3.1,1-8.5,3.9-8.7,11.6c-0.2,7.4,5.8,15.8,15.8,17.2c7.9,1.1,14.1-6,14.5-13.9
	c0.7-12.3-0.7-25.1-7-42.7c-11.1-31.2-35.9-44.1-66-41.3c-28.1,2.6-53.3,22.8-62.9,53.9c-6,19.4,2.6,58.3,16.2,80.3
	c14.7,23.8,36.5,39.8,62.4,43.9c24.4,3.9,53.1,1.4,71.2-13.3c21.7-17.6,28-39.8,27.7-70.2c-0.2-27.3-5.5-58.7-16.9-88.3
	c-7.4-19.4,1.7-20.6,6.3-2.2c4.6,18.5,20.1,50.4,41.6,81.2c21.7,31.1,35.5,41.5,60.1,46.9c28.3,6.2,56.7-0.7,40.9,14.5
	c-12.9,12.5-16.4,29.3-25.1,50.8c-17.4,43.1-28.3,102.7-31,167.7c-1.1,25.5-4.6,81.2-3.3,108.3c3.1,31.2,1,65.1-4,95.6
	c-3.6,22.2-19.9,54.9-27.7,69.4c-4.5,8.4-6.6,28.9-4.6,46.9c1.6,14.5,5.3,161.1,7.9,183.5c2.6,22.4-12.4-28.3-20.6-50
	c-10.7-28.2-32.9-70.1-56-103.9c-16.8-24.6-39.6-40.2-53.4-66.3c-5.8-10.9-8.2-24.7-6.9-36.4c1.3-11.4,13.1-23.9,11.3-12.9
	c-2.7,16.1-7,27.2-2.7,37.9c10.3,26.1,31.1,45.3,52.5,67.8c5.7,5.9,22.5-9.8,35.3-22.8c14.8-15,27.8-30.6,24.6-21.4
	c-4.3,12.5-16.6,24.9-33.7,36.6c-6.4,4.4-16.1,5.5-18.7,13.7c-2.3,7.1,4.9,15,9.4,25.5c16.7,38,40.2,94.3,51.5,124.9
	c14.5,39,53.1,179.3,53.1,179.3"/>
<g>
	<path class="st1" d="M1559.7,1242.2c0,0,0-53.7,2.5-66.3s13.2-61.8,21.8-86.1c8.6-24.3,15.9-45.8,21.3-54.7
		c5.4-9,9.1-15.2,16.7-17.7s24.2-16.9,25.3-21.4s1.9-9.8,1.9-16.1"/>
	<path class="st1" d="M1643.3,1016.7c6.1,2.7,25.6,9.4,33.1,15"/>
	<path class="st1" d="M1599,1240.7c0,0,1.7-16.3,0-27.9s-4.6-21.9-2.9-27.9s44.2-94.6,50.4-110.7c6.2-16.1,3,7-3.3,17.3
		s-27.5,51.6-28.4,57.2c-0.7,4-1.2,10.2,0.5,14.4c3.3,8.4,10.7,18,10.3,26.9c-0.8,20.4-9.8,31-13.3,50.7"/>
	<path class="st1" d="M1689.6,1004.6c-1,10.3-2.6,21.5-3.1,27.1c3.1-3.6,1.8-7.3,3.6-6s5.9,4,6.6,4.4c-2,2.7-12.9,10.4-12.1,11.7
		c0.8,1.3,8.8-4.5,10.7-7c1.9-2.5,0.4-3.7,3.6-3.1s10.1-1.1,12.6,0.3s5.8,3.9,7.2,6.7c1.3,2.8-0.3,16.3-1.5,19.1
		c-1.2,2.8-3.1-5.4-4.7-4.7c-1.7,0.6,3.7,7.3,6.7,13.8s5.7,17.9,6.5,23.5s4.1,9.1,6.3,10.7s6.3,5.9,6,10.5c-0.2,4.1-5.9,9-7.4,9.4
		s-7.2-4.6-6.8-10.8c0.3-4.6,2.7-7.6,5.4-8.1c3.6-0.6,5.3,2.8,5.8,6.3c0.6,4.1-1,8.4-4.3,7.9c-3.9-0.5-3.6-6.8-1.6-9.2
		c1.1-1.3,3.7-0.7,4,2.2c0.4,4.4,0.8,10.4-3.8,12.9c-3.5,1.8-7.1,1-8.5,5.5c-2.1,6.9-2.7,15.1-3.1,22.1c-0.7,11.1-0.6,23.8,0.8,36.8
		c0.8,8,4.7,16.5,5.2,25.1c0.6,11.4,0.8,20.3,0.9,30.1"/>
	<path class="st1" d="M1692.3,1086.6c-0.2,1.2-0.9,3.7,0.5,6.9c1.9,4.5,5.1,8.7,6.1,11.1c0.9,2.4,1.3,4.6,1.3,6.4s-1.3,5.2-3,7.2
		s-3.8,3.7-5.7,3.1c-5.3-1.6-7.4-5.6-7.7-11.1c-0.3-5.5,2.1-8.7,5.4-9.2c3.2-0.5,5.3,0.6,6.5,1.7c1.9,1.7,2.8,4.2,2.6,7.9
		c-0.2,2.7-0.5,3.8-1.5,4.8c-0.8,0.8-2.2,1.1-3.7,0.4c-1.7-0.8-2.5-2.4-2.1-3.8s1.5-2.4,2.7-2.6s2.3,0.1,2.9,0.7
		c3.4,2.8,2.1,8.4-1.9,11.1s-8.3,3.4-13.5,2.2c-11.5-2.7-21.4-8-30.6-15.1"/>
</g>
<g>
	<path class="st1" d="M2009.6,1000.2c-2.7,3.3-5.6,6.3-8.7,9.2c-6.6,6.1-11.8,13.5-16.3,21.2c-1.9,3.2-5.3,10.7-5.4,7.4
		c-0.1-3.6,0.7-6.4,0.6-8.9c-0.1-3-0.4-4.8-0.7-7.4c-0.4-3.4-0.8-6.9-1.2-10.1c-0.4-4.2-2.1-5.4-1.5-1.4c0.5,3.1,1,7.9,1.4,13.3
		c0.4,6.4-0.3,11.3,0.9,19.9c0.9,6.9,5.4,11.5,10.2,15c4,3,8.8,8.8,10.5,14c1.7,5.3,3.1,11.3,2.7,17c-0.2,3.6-1.4,9.3-2.9,12.3
		c-1.6,3.1-5.1,4.4-9.4,4.4c-7.3-0.1-14.8-3.4-20.5-10.8c-5.7-7.3-13.4-11.7-22.1-12c-3-0.1-5.1,1-6.4,3c-0.6,0.9-0.6,2.3,0.1,3.2
		c0.7,1,2.6,0.9,3.3-0.4c0.5-1.1,0.1-2.9-0.7-3.8s-2.4-1.1-3.5-0.8c-0.9,0.3-2.5,1.1-2.5,3.4c-0.1,2.1,1.7,4.5,4.6,5
		c2.3,0.3,4.1-1.7,4.2-4c0.2-3.6-0.2-7.2-2-12.3c-3.2-9-10.4-12.7-19.1-11.9c-8.1,0.7-15.4,6.6-18.2,15.6
		c-1.7,5.6,0.8,16.8,4.7,23.2c4.2,6.9,10.5,11.5,18,12.7c7,1.1,15.3,0.4,20.6-3.9c6.3-5.1,8.1-11.5,8-20.3
		c-0.1-7.9-1.6-16.9-4.9-25.5c-2.1-5.6,0.5-6,1.8-0.6c1.3,5.3,5.8,14.5,12,23.4c6.3,9,10.2,12,17.3,13.5c8.2,1.8,16.4-0.2,11.8,4.2
		c-3.7,3.6-4.7,8.5-7.2,14.7c-5,12.4-8.2,29.7-9,48.4c-0.3,7.4-1.3,23.4-1,31.3c0.9,9,0.3,18.8-1.1,27.6c-0.7,4-2.7,9.2-4.7,13.5"/>
	<path class="st1" d="M1936.2,999.9c0.3,2.4,0.8,4.3,1.4,5c2,2.3,4.5,3.6,6.5,4.1c1.1,0.3,2.2,0.6,2.8,0.3c0.5-0.2,1.1-0.6,1.7-0.5
		c1.2,0.2,3.7,5.3,4.9,5.9c1.3,0.6-3.6-4.7-4.2-6.9c-0.4-1.8,0.8-4,4.2-7.6"/>
	<path class="st1" d="M1892.6,1000.5c0.2,1.5,0.6,3,1.4,4.3c0.5,0.8,1.2,1.4,1.8,2.1c1.1,1.1,2.5,2.6,4,3.7c0.3,0.2,0.7,0.5,1,0.4
		c0.4-0.2-0.2-1.2-0.3-1.4c-0.3-0.5-0.8-0.9-1.3-1.3c-0.7-0.6-1.4-1.2-2.1-1.8c-1.2-1.1-2.3-2.3-3-3.7c-0.4-0.7-0.6-1.5-0.8-2.2"/>
	<path class="st1" d="M1891.6,1000.5c-0.4,1.7-0.8,3-1.6,4.5c-0.5,0.9-0.9,1.8-1.4,2.4c-0.5,0.7-1.1,1.3-1.7,2
		c-0.5,0.5-1.4,1.2-1.8,1.7c-0.3,0.3-0.6,0.3-0.4,0c0.9-2.3,0.9-4.1,0.9-6.1c0-0.8,0-2.6,0-4.4"/>
	<path class="st1" d="M1819.8,1242.7c1.2-11.8,2.5-27.6,3.5-34.5c1.8-12.4,4.3-20.1,7.4-28.1c6.3-16.3,8.9-32.4,9.8-44.5
		c1.3-17,0.1-33.9,2.6-53.2c1.3-9.6,2.3-17,3.7-25.4c1.7-10.1,3.3-17.4,6.5-24.2c3.4-7.4,9.6-10.6,13.7-11.8
		c3.2-0.9,10.4-2.9,12.8-4.2c0.6-0.3,1.2-0.8,1.7-1.2c1.2-1,2.3-2.2,3.4-3.3c1-1,1.9-2,2.9-3c0.5-0.6,1.1-1.2,1.6-1.8
		c0.4-0.6,1-1.2,1.3-1.9c0.5-0.9,0.8-1.7,1.2-2.6c0.4-0.9,0.5-1.6,0.4-2.4"/>
	<path class="st1" d="M1858.8,1242.5c1.6-5.7,3.6-11.8,6.4-16.6c5.3-9.1,10-15.9,18.1-23.5c9.2-8.5,14.8-16.3,16.7-25.6
		c1.2-5.7,1.9-15.5,1.1-20.6s0.4-0.9,2.5,1.9s4,5.5,3.4,3.8s-0.9-1.5-2.5-3.7c-1.5-2.2-5.2-8.2-8.2-14.8c-1.7-3.8-5.3-10.4-9.1-16.6
		c-3.1-5.2-7.2-11-8.6-21.3c-0.7-5.1,0.1-8.5,1.8-12.8c2.4-6.1,4.3-11.5,5.8-17.7c0.7-3.1,2.7-4,1.9-4s-4.1,3.7-5.2,7.2
		c-1.6,5.4-3,10-4.4,14.2c-1.2,3.5-3.3,9.3-4.1,12c-1,3.7-2.4,7.7-3.1,11.6c-0.8,5-1.1,12.4-1.6,17.8c-0.6,5.4-2.2,13.9-3.3,19.7
		c-1.1,6.5-2,15.3-3.1,23.6c-0.5,3.4-6.6,20.5-7.9,24.4c-3.9,11.6-8.3,25.6-13.1,40.7c-0.1,0.2-0.1,0.4-0.2,0.7"/>
</g>
<g>
	<path class="st1" d="M2180.2,1119.4c-1.1,7-2,22.9-1.5,28.4c0.4,8.5-0.1,17.1-0.7,26.8"/>
	<path class="st1" d="M2181.4,1084.9c0.1-5.4,2-10.9,2.8-13.1c1.3-3.8,3.4-7.8,6.4-12.8c2-3.4,4-5.3,5.1-4.4c1.2,0.9,0,3.4-2.2,6.7
		c-2.2,3.3-6.3,11-9,17.5c-3.1,7.5-9.1,13.8-9.1,23c0,16.6,11.4,30.1,25.5,30.1s28.5-15.8,31-32.2c1.3-8.1,1.4-19.5,2.1-26.9
		c1-10,3.7-8.8,4.9-0.7c1.2,8.5,0.6,17.4,3,26.6c4.3,16.1,13.6,29.2,28.5,29.2s26.9-13.5,26.9-30.1c0-5.5-1.5-10.6-3.7-15.2
		c-3.1-6.5-10.6-12.9-17.9-14.6c-6.6-1.5-15.6-1.4-20.3,5.8c-8.1,12.5-4.8,28,3.9,36.1c6.9,6.4,16.5,6.4,23.4-0.3
		c6.5-6.4,5.6-17.3,1.5-22.7c-3.4-4.5-8.6-5.7-14.1-4.4c-7.3,1.8-10.7,9.6-9.4,15.4s6.3,8.2,10.4,7.9c5.3-0.4,10-2.9,10.4-8.2
		c0.6-7.6-4-10.2-8.6-8.9c-3.5,1-4.5,3.4-4.3,5.9c0.2,3,3.1,5.1,5.9,4.2c2.8-0.8,1-4.2,3.1-5.9c3.1-2.5,7.5-2.7,10.3-4.2
		c2.7-1.5,5.6-2.9,6.1-5.4c0.4-1.9,0.4-3.4,0.6-4.4c0.6-6.6,2.4-11.6,3.9-15.7c1-2.1,2.6-4.1,2.8-6.4s-0.6-3.3,0-3.1
		c0.6,0.1,2.2,1,1.4,3.8s-3.3,6.1-3.7,8.2s-2.4,10.9-3.7,21"/>
	<path class="st1" d="M2152.8,1241.8c0-12.3,2.1-21.5,5-30.5c2.7-8.3,4.4-15,8.3-21.8c4.3-7.5,11.9-13.8,14.6-19.1
		c2.7-5.3,5.3-8.1,6.1-13c1.5-9.5,2.3-18.3,1-29.7"/>
	<path class="st1" d="M2292.6,1241.8c-1.8-16.5-6.5-21.2-10.8-32c0,0-2.6-7.2-1.5-17.1c1.2-9.8,3-16.7,4.7-23.7s3.7-15,4.3-24.2
		c0.5-9.2,2.6-20.7,3.4-29.9"/>
	<path class="st1" d="M2266.9,999.3c3.5,4.7,9.6,7.9,14.7,11.2c5.1,3.3,18.1,7.1,24.3,7.8s9.4,6.4,11.9,14.6
		c1.7,7.9,3.5,21,3.1,30.5c-0.3,7.6-0.1,13.5,0,17.9c0.3,7.3,1.4,15.2,1.7,21.8c0.4,10.5-0.3,21.9-0.6,37.3
		c-0.3,14.4-6.4,16.9-14.6,23.8c-6,5.1-15.7,10.4-25.2,16.2"/>
	<path class="st1" d="M2156.9,1214.2c0.7-6.9,2.3-12.9,2.4-19.6c0.3-10.6-2.8-36-3.4-46.8c-0.8-15.4-0.7-27.6-0.2-38.2
		c0.4-6.2,1-13.7,1.3-21c0.1-4.5,0.9-12.9,2.1-20.4c1.5-9.2,2.2-19.2,2.1-28.1c-0.2-10.7,3.9-19.7,9.4-26.2c5.9-7,15.8-7.8,26.6-9.4
		c7.5-1.1,14.1-2.4,20.2-5.4"/>
	<path class="st1" d="M2231.9,1180.4c1,1,1.2,2.8,0.2,4c-0.7,1-2,1-2.9,0.2c-0.7-0.7-0.7-1.8-0.1-2.6c0.4-0.6,1.2-0.7,1.8-0.1
		c0.4,0.4,0.4,1.2,0.1,1.6c-0.3,0.4-0.8,0.4-1.2,0.1"/>
</g>
<g>
	<path class="st1" d="M1949.5,1521.7c0,0,1.7,7.6,5.6,10.6c3.8,3,13.5,8.1,19.1,10.2c5,1.9,7.8,2.9,11.6,3.8
		c3.7,0.9,7.7,2.3,10.1,3.8c3.9,2.4,6.2,6.2,7.3,10.1c2,7,3.2,15,4.2,24.7c0.8,8.2,0.9,13.1,1.6,20.9c0.5,5.7,4.8,32.9,5.4,38.6
		s0.9,16.6,0.9,23.6s-0.1,9.6-0.7,12.3c-0.7,3.5-2.1,7.3-4.9,9.8c-2.2,2-6.3,0.7-10.6,0.4c-3.7-0.2-9.6-0.2-14.6,0.2
		c-5.3,0.4-10.8,0.7-17.1,0.5c-4.8-0.2-8.6-0.1-12.5-1.2c-3.9-1-15.6-4.6-18.8-5.6c-3.2-1-7.6-1.4-10.7-1.3
		c-2.7,0.1-5.2,0.9-7.2,2.4c-1.7,1.2-4,3.5-6.4,5c-2.4,1.6-7,2.6-8.8,4.7s-9,9.1-11.2,11.1s-4.9,3.1-6.2,3.3
		c-1.3,0.3-1.8-0.1-2.3-0.6s-0.4-1.5,0.7-2.7s4.6-4.9,5.8-6.6c1.5-2,3-3.6,4.8-5.3c0.9-0.8,2.6-1.7,1.8-2.4c-0.9-0.8-2.1,0.3-2.9,1
		s-3.7,3.2-6.1,5.7s-7.4,6-9.3,7.5c-2,1.5-5.5,4-7,2.3s1.2-3.6,3.1-5.4c1.6-1.5,3.1-3.2,4.2-4.6c1.4-1.7,2.8-3.3,4.4-4.7
		c1.6-1.4,2.9-2.5,3.9-3.3s3.1-1.9,2.3-3c-0.8-1.1-2.9,0.8-3.9,1.7c-1,0.9-3.8,2.7-5.6,4.5s-6.9,5.7-9.3,7.8
		c-2.4,2.1-5.3,4.2-6.6,2.8s0.3-4.6,2.5-6.6s3.7-3.2,5-4.7s3-2.9,4.2-4.1c1.5-1.5,4.4-3.7,6.8-5.6c2.4-1.8,2.8-2.2,1.7-3.6
		c-1.1-1.3-3.4,0-5.5,0.7s-3.9,0.9-6.2,1.2c-2.7,0.4-4.9,0.9-7.7,2.3c-2.1,1-7.1,3.9-8.8,1.5c-1.7-2.4,2.4-4.4,5-5.8
		s4.5-2.4,7.7-3.8c3.3-1.4,5.5-2.1,8-2.4s4.7-1.1,7.1-2.7c2.4-1.7,4.6-2.8,6.7-4.2c2.3-1.4,5-2.6,4.5-3.5c-0.6-0.9-2.7,1.1-4.6,2.4
		c-1.6,1.1-3,2.2-4.4,2.9c-1.3,0.7-3.3,0.9-5,0.5s-3.8-1.3-5.7-2.5c-1.6-1-2.9-2-2.5-3.5c0.4-1.4,2.4-1.7,5.4-1.4s4.2,0.5,6.5,0.3
		s6.9-1.3,10.1-1.8s9.8-1.2,13.7-1.1c3.9,0.1,13-0.2,17.5-0.1s8.6,0.9,12.3,2c3.9,1.1,8.1,1.1,15,1c10.6-0.1,22.2,0.5,28.5-0.5
		c4.2-0.7,5.9-3.5,10-3c4.1,0.4,5,2.5,6.7,2.3s2.1-1.2-0.9-2.4c-2.9-1.2-5.1-2.3-9-1.2c-2.8-5.1-2.2-11.2-3.1-17.8
		c-1-6.6-1.6-15-2.5-21.7c-1.3-9.3-1.4-16.3-0.3-24.2c0.7-4.9,1.4-12.5,0.7-10c-0.8,2.5-2,6.5-2.4,11.3c-0.3,3.1-0.8,7.2-0.2,10.3
		c0.3,1.4,0.5,3.2,0.4,5.3c-0.2,19.1-13.1,34.6-29.2,34.6s-29.2-15.5-29.2-34.6c0-6.5,1.5-12.6,4.2-17.8l0.8-1.6
		c3.6-6.8,10.3-11.5,18.1-11.5c11.5,0,20.8,10.1,20.8,22.5c0,3.1-0.2,6.3-1.6,8.8c-0.4,0.6-0.8,1.1-1.3,1.7c-3,3.4-8,4.2-11.5,1.4
		c-3.3-2.6-3.9-7.5-1.3-10.8c2.5-3.1,7-3.7,10.2-1.2c3,2.3,3.5,6.6,1.1,9.5c-2.2,2.8-6.2,3.3-9,1.1c-2.6-2-3.1-5.8-1-8.4
		c1.9-2.4,5.5-2.9,7.9-0.9c2.3,1.8,2.7,5.1,0.9,7.4c-1.7,2.2-4.8,2.5-7,0.8c-2-1.6-2.4-4.5-0.8-6.6c1.5-1.9,4.3-2.2,6.2-0.7
		c1.8,1.4,2.1,4,0.7,5.8c-1.3,1.7-3.8,2-5.4,0.7c-1.6-1.2-1.9-3.5-0.6-5.1c1.2-1.5,3.3-1.7,4.8-0.6c1.4,1.1,1.6,3.1,0.5,4.5
		c-1,1.3-2.9,1.5-4.2,0.5c-1.2-1-1.4-2.7-0.5-4c0.9-1.2,2.6-1.4,3.7-0.4c1.1,0.9,1.3,2.4,0.4,3.5c-0.8,1-2.3,1.2-3.3,0.4
		c-1-0.8-1.1-2.1-0.4-3.1"/>
	<path class="st1" d="M1971,1635.5c0.2,10.3-5.1,16.8-5.8,26.7"/>
	<path class="st1" d="M1971.6,1691.5c5.9,8.6,11.5,18.9,16.4,28.3c6.1,11.7,9.9,21.1,12.3,32.8c0.5,2.5,0.9,5.5,1.3,8.7"/>
	<path class="st1" d="M1918.8,1579.2c2.7,5.2,4.2,11.3,4.2,17.8c0,19.1-13.1,34.6-29.2,34.6s-29.1-15.5-29.2-34.6
		c-0.1-8.3,7-15.9,9.6-20.5c2.5-4.5,3.7-7.4,4.2-10.4c0.4-3-2.3-3.9-3.7-0.4c-1.4,3.5-1.6,6.2-1.3,12.1"/>
	<path class="st1" d="M1870.1,1701.2c-1,11.1-5,18.5-7.3,30.1c-1.9,10-2.1,20.2-1.2,30.7"/>
	<path class="st1" d="M1873.7,1622.2c0.9,5.1,0.6,10.7,0,14.8c-0.6,4.1-2.2,8.1-3,11.9c-0.5,2.4,0.1,4.8,1.7,5.9
		c3.2,2.1,6.5,4,9.8,7"/>
	<path class="st1" d="M1973.8,1735.3c2.1,2.5,4.4,3.5,6.1,5.2c0.7,0.7-1,2.8-3.5,2.8"/>
	<path class="st1" d="M1966.9,1544.1c-3.6,0-9.8-2-14.8-2.2c-5.1-0.3-14.8,2.1-17-1c-2.1-3.1,0-13.4-0.7-5.3s-6.6,14.1-10.3,14.1
		c-3.8,0-9.4-9-9.5-19.3c0-3.4,1-2.7,1.4-0.1c1.1,6.2,1.6,11.6-1.8,14.2c-4.1,3.1-11.3,3.4-20.4,1.5"/>
	<path class="st1" d="M2047,1518.1"/>
	<path class="st1" d="M1815.5,1518.1"/>
	<g>
		<path class="st1" d="M1970.2,1761.1c-0.2-4.1-0.3-12.9-0.8-15.3c-0.6-2.5-1.2-6.5-0.3-6.8c0.9-0.3,0.6,9.8,1.2,10.8
			s1.9,6,3.3,10.4c0.1,0.3,0.2,0.6,0.3,0.9"/>
		<path class="st1" d="M1963.7,1761.1c-0.1-0.4-0.1-0.8-0.2-1.2c-0.7-4.7,0.4-10.1,0.4-12.4s-0.4-5-1.3-4.9s-0.6,2,0.3,5.7
			c0.8,3.4-0.3,8.6-0.9,12.7"/>
		<path class="st1" d="M1955.6,1761.1c-0.1-3.7,0.4-7,0.4-10.2c0-3.6-0.4-7.8-1.4-7.8s-0.3,3.7-0.1,8c0.2,3.2-0.2,7.3-0.6,10"/>
		<path class="st1" d="M1918,1685.5c6,4,19.5,9,24.6,10.8c5.2,1.8,8.3,4.9,10.1,7.4s6.1,8,8.8,10.1c2.7,2.2,6.6,5.3,8.3,9.3
			c1.7,4,3,8.9,4.4,13.9s4.2,15.8,4.8,20.1c0.2,1.4,0.3,2.8,0.3,4"/>
		<path class="st1" d="M1893.4,1704.6c2.5,1.1,5,2,7.1,2.7c12.2,3.9,19.4,5.9,25,7.5s10.3,2.9,13.5,11.1s5.4,13,7.4,18.7
			s1.7,9.1,1.6,12.6c0,1.6,0.1,2.8,0.5,3.8"/>
		<path class="st1" d="M1884.9,1700.7c0.9,0.5,1.8,0.9,2.8,1.3"/>
		<path class="st1" d="M1876.2,1696.1c0.9,0.5,1.7,0.9,2.6,1.4"/>
		<path class="st1" d="M1859.5,1685.8c2.2,1.4,4.1,2.8,5.3,3.7c0.7,0.6,2.8,1.9,5.8,3.6"/>
		<path class="st1" d="M1906.2,1518.1c-2.3,7.3-12.2,13.8-19.9,14.9c-7.6,1.1-17.4,1.9-24.3,3.9c-5.4,1.5-13.1,8.7-14.2,19.1
			c-1.1,10.5-1.9,33.7-3.7,43.8s-3.7,30-2.8,45.6c0.6,10,1.7,17.7,3.4,25.3c0.8,3.6,3.5,8.6,7.1,10.6c1.1,0.6,2.2,1.3,3.5,2"/>
	</g>
</g>
<path class="st1" d="M2295.6,1108.6c-0.2,10.8,2,17.1,1.2,24.7c-0.6,6.5-4.8,13.4-8,16.6"/>
<g>
	<g>
		<line class="st1" x1="2271.9" y1="1050.5" x2="2271.9" y2="1075.2"/>
		<g>
			<path class="st2" d="M2267.1,1068.4c0.2-0.1,0.5-0.1,0.7,0.2l4.1,6.5l4.1-6.5c0.1-0.2,0.5-0.3,0.7-0.2s0.3,0.5,0.2,0.7l-4.5,7.1
				c-0.1,0.1-0.3,0.2-0.4,0.2s-0.3-0.1-0.4-0.2l-4.5-7.1c-0.1-0.1-0.1-0.2-0.1-0.3C2266.9,1068.6,2267,1068.5,2267.1,1068.4z"/>
		</g>
	</g>
</g>
<g>
	<g>
		<line class="st1" x1="2294.7" y1="1056.4" x2="2283.4" y2="1078.3"/>
		<g>
			<path class="st2" d="M2282.3,1070.1c0.3,0,0.5,0.2,0.5,0.5l0.7,7.6l6.6-3.8c0.2-0.1,0.5-0.1,0.7,0.2c0.1,0.2,0.1,0.5-0.2,0.7
				l-7.3,4.2c-0.1,0.1-0.3,0.1-0.5,0s-0.3-0.2-0.3-0.4l-0.8-8.4c0-0.1,0-0.2,0.1-0.3C2282,1070.2,2282.1,1070.1,2282.3,1070.1z"/>
		</g>
	</g>
</g>
<g>
	<g>
		<line class="st1" x1="2249.7" y1="1058.1" x2="2261" y2="1080"/>
		<g>
			<path class="st2" d="M2253.6,1076.1c0.1-0.2,0.4-0.3,0.7-0.2l6.6,3.8l0.7-7.6c0-0.3,0.3-0.5,0.5-0.5s0.5,0.3,0.5,0.5l-0.8,8.4
				c0,0.2-0.1,0.3-0.3,0.4c-0.2,0.1-0.3,0.1-0.5,0l-7.3-4.2c-0.1-0.1-0.2-0.1-0.2-0.2C2253.5,1076.4,2253.5,1076.3,2253.6,1076.1z"
				/>
		</g>
	</g>
</g>
<g>
	<path class="st0" d="M1401.7,1541.6c-17.6-8.2-30.2-29-30.2-53.3c0-9.7,2-18.9,5.5-26.9"/>
	<path class="st0" d="M1394.8,1441.7c0,0-7.4-1.2-12.5,4.4s-5.7,10.4-5.3,15.3c4.1-1.3,7.7-3.3,9.5-5c1.8-1.8,3.8-6.1,5.1-8.6
		C1392.9,1445.4,1393.9,1443.5,1394.8,1441.7z"/>
	<path class="st0" d="M1372.2,1478.2c1.1-5.1,2.1-11.3,1.8-17.6c-0.3-5.9-1.9-10.9-4.7-13c-2.8,4.5-4.4,9.8-4.7,14.6
		C1364.1,1468.7,1366.3,1475.3,1372.2,1478.2z"/>
	<path class="st0" d="M1372.5,1500.1c-0.7-4.9-1.8-10.9-4.2-16.3c-2.3-5.1-5.4-9-8.7-9.8c-1.2,5.1-0.8,10.5,0.4,14.9
		C1361.7,1494.7,1365.9,1499.8,1372.5,1500.1z"/>
	<path class="st0" d="M1379.4,1520c-1.8-4-4.3-8.7-8-12.3c-3.4-3.4-8.3-4.7-11.7-3.8c0.1,5,3.4,10,6.1,12.9
		C1369.6,1520.8,1373,1522.8,1379.4,1520z"/>
	<path class="st0" d="M1379.4,1519.9c2.7-2.6,4.4-5,6-9.2c1.2-3.3,2-7.9,1.8-11.6c-5.3,0.6-8.1,3.9-9.2,7.2
		C1376.5,1511,1376.3,1515,1379.4,1519.9z"/>
	<path class="st0" d="M1372.5,1500.1c3.4-1.3,6.1-2.8,9.2-6c2.5-2.5,4.4-6.5,5.6-10c-5.2-1.6-8.9,0.2-11.1,2.9
		C1373.1,1490.6,1371.5,1494.2,1372.5,1500.1z"/>
	<path class="st0" d="M1372.3,1478.1c3.1,1.1,7.3,0.6,10.3-1.8c2.7-2.2,5.9-4.8,8.4-8.2c-3.8-3.8-8.8-3.7-12.3-1.3
		C1375.7,1468.9,1372.8,1472.2,1372.3,1478.1z"/>
	<path class="st0" d="M1392.9,1536.1c2.6-2.8,3.3-7.1,2.4-12.1c-0.7-4.5-2.6-9.3-4.3-12.8c-3.3,2.9-4.7,8.3-4.4,12.3
		C1386.9,1528.8,1388,1532.8,1392.9,1536.1z"/>
	<path class="st0" d="M1392.9,1536.2c-3.9-3.4-8.4-7-11.7-8.1c-4-1.3-8.5-1.1-12.4,0.9c2.7,4.1,6.6,9,10.6,10.7
		C1384.7,1541.8,1389.8,1540.9,1392.9,1536.2z"/>
</g>
<g>
	<path class="st0" d="M1455.1,1541.6c17.6-8.2,30.2-29,30.2-53.3c0-9.7-2-18.9-5.5-26.9"/>
	<path class="st0" d="M1462,1441.7c0,0,7.4-1.2,12.5,4.4s5.7,10.4,5.3,15.3c-4.1-1.3-7.7-3.3-9.5-5c-1.8-1.8-3.8-6.1-5.1-8.6
		C1463.9,1445.4,1462.9,1443.5,1462,1441.7z"/>
	<path class="st0" d="M1484.5,1478.2c-1.1-5.1-2.1-11.3-1.8-17.6c0.3-5.9,1.9-10.9,4.7-13c2.8,4.5,4.4,9.8,4.7,14.6
		C1492.7,1468.7,1490.5,1475.3,1484.5,1478.2z"/>
	<path class="st0" d="M1484.3,1500.1c0.7-4.9,1.8-10.9,4.2-16.3c2.3-5.1,5.4-9,8.7-9.8c1.2,5.1,0.8,10.5-0.4,14.9
		C1495,1494.7,1490.8,1499.8,1484.3,1500.1z"/>
	<path class="st0" d="M1477.4,1520c1.8-4,4.3-8.7,8-12.3c3.4-3.4,8.3-4.7,11.7-3.8c-0.1,5-3.4,10-6.1,12.9
		C1487.2,1520.8,1483.8,1522.8,1477.4,1520z"/>
	<path class="st0" d="M1477.4,1519.9c-2.7-2.6-4.4-5-6-9.2c-1.2-3.3-2-7.9-1.8-11.6c5.3,0.6,8.1,3.9,9.2,7.2
		C1480.3,1511,1480.4,1515,1477.4,1519.9z"/>
	<path class="st0" d="M1484.3,1500.1c-3.4-1.3-6.1-2.8-9.2-6c-2.5-2.5-4.4-6.5-5.6-10c5.2-1.6,8.9,0.2,11.1,2.9
		C1483.7,1490.6,1485.3,1494.2,1484.3,1500.1z"/>
	<path class="st0" d="M1484.5,1478.1c-3.1,1.1-7.3,0.6-10.3-1.8c-2.7-2.2-5.9-4.8-8.4-8.2c3.8-3.8,8.8-3.7,12.3-1.3
		C1481,1468.9,1484,1472.2,1484.5,1478.1z"/>
	<path class="st0" d="M1463.9,1536.1c-2.6-2.8-3.3-7.1-2.4-12.1c0.7-4.5,2.6-9.3,4.3-12.8c3.3,2.9,4.7,8.3,4.4,12.3
		C1469.9,1528.8,1468.7,1532.8,1463.9,1536.1z"/>
	<path class="st0" d="M1463.9,1536.2c3.9-3.4,8.4-7,11.7-8.1c4-1.3,8.5-1.1,12.4,0.9c-2.7,4.1-6.6,9-10.6,10.7
		C1472,1541.8,1467,1540.9,1463.9,1536.2z"/>
</g>
<g>
	<circle class="st0" cx="1284.8" cy="1494.2" r="50"/>
	<g>
		<g>
			<defs>
				<path id="SVGID_1_" d="M1315.6,1488.3h-30v12.4h17.3c-1.7,8.5-9.4,13.1-19.3,12.4c-6.8-0.5-12.9-4.7-15.4-11
					c-5.6-13.9,4.3-27,17.4-27c4.5,0,8.6,1.6,11.9,4.2l9.4-9.4c-5.4-4.7-12.3-7.7-19.9-8c-17.8-0.7-33.1,13.6-33.5,31.5
					c-0.4,18.2,14.1,32.9,32.2,32.9c16.1,0,30.8-11.7,30.8-32.2C1316.3,1492.3,1316,1490.2,1315.6,1488.3z"/>
			</defs>
			<clipPath id="SVGID_2_">
				<use xlink:href="#SVGID_1_"  style="overflow:visible;"/>
			</clipPath>
			<use xlink:href="#SVGID_1_"  style="overflow:visible;fill:none;stroke:#000000;stroke-miterlimit:10;"/>
		</g>
		<g>
			<defs>
				<path id="SVGID_3_" d="M1315.6,1488.3h-30v12.4h17.3c-1.7,8.5-9.4,13.1-19.3,12.4c-6.8-0.5-12.9-4.7-15.4-11
					c-5.6-13.9,4.3-27,17.4-27c4.5,0,8.6,1.6,11.9,4.2l9.4-9.4c-5.4-4.7-12.3-7.7-19.9-8c-17.8-0.7-33.1,13.6-33.5,31.5
					c-0.4,18.2,14.1,32.9,32.2,32.9c16.1,0,30.8-11.7,30.8-32.2C1316.3,1492.3,1316,1490.2,1315.6,1488.3z"/>
			</defs>
			<clipPath id="SVGID_4_">
				<use xlink:href="#SVGID_3_"  style="overflow:visible;"/>
			</clipPath>
			<use xlink:href="#SVGID_3_"  style="overflow:visible;fill:none;stroke:#000000;stroke-miterlimit:10;"/>
		</g>
		<g>
			<defs>
				<path id="SVGID_5_" d="M1315.6,1488.3h-30v12.4h17.3c-1.7,8.5-9.4,13.1-19.3,12.4c-6.8-0.5-12.9-4.7-15.4-11
					c-5.6-13.9,4.3-27,17.4-27c4.5,0,8.6,1.6,11.9,4.2l9.4-9.4c-5.4-4.7-12.3-7.7-19.9-8c-17.8-0.7-33.1,13.6-33.5,31.5
					c-0.4,18.2,14.1,32.9,32.2,32.9c16.1,0,30.8-11.7,30.8-32.2C1316.3,1492.3,1316,1490.2,1315.6,1488.3z"/>
			</defs>
			<clipPath id="SVGID_6_">
				<use xlink:href="#SVGID_5_"  style="overflow:visible;"/>
			</clipPath>
			<use xlink:href="#SVGID_5_"  style="overflow:visible;fill:none;stroke:#000000;stroke-miterlimit:10;"/>
		</g>
		<g>
			<polygon class="st0" points="1256.7,1480 1256.7,1480 1266.6,1487.5 			"/>
			<polygon class="st0" points="1266.6,1487.5 1267.5,1488.2 1267.5,1488.2 			"/>
		</g>
		<path class="st0" d="M1285.6,1526.4c7.9,0,15.4-2.8,21-8l-10.3-8c-3.4,2.1-7.8,3.1-12.7,2.7c-6.8-0.5-12.9-4.7-15.4-11
			c-0.3-0.7-0.5-1.3-0.7-2l-10.8,8.3C1261.9,1519.1,1272.8,1526.4,1285.6,1526.4z"/>
		<path class="st0" d="M1266.6,1487.5l-9.9-7.6c-2.1,4.1-3.3,8.7-3.4,13.5c-0.1,5.4,1.1,10.5,3.3,15l10.8-8.3c-1.3-4.2-1.2-8.4,0-12
			L1266.6,1487.5z"/>
		<path class="st0" d="M1267.5,1488.2c2.5-7.6,9.6-13.1,18.1-13.1c4.5,0,8.6,1.6,11.9,4.2l9.4-9.4c-5.4-4.7-12.3-7.7-19.9-8
			c-13-0.5-24.6,7-30.1,18l9.9,7.6L1267.5,1488.2z"/>
	</g>
</g>
</svg>
