<svg width="51" height="53" viewBox="0 0 51 53" fill="none" xmlns="http://www.w3.org/2000/svg">
<path d="M50.4117 21.6581H26.0944V31.9021H40.0916C38.7924 38.4119 33.3259 42.1461 26.0944 42.1461C17.5516 42.1461 10.6756 35.1632 10.6756 26.4876C10.6756 17.8119 17.5516 10.829 26.0944 10.829C29.7715 10.829 33.093 12.1484 35.7037 14.3267L43.2906 6.62189C38.6698 2.52677 32.7376 0 26.0944 0C11.6193 0 0 11.7999 0 26.5C0 41.2001 11.6193 53 26.0944 53C39.1478 53 51 43.3659 51 26.5C51 24.9317 50.7671 23.2513 50.4117 21.683V21.6581Z" fill="url(#paint0_linear_599_923)"/>
<defs>
<linearGradient id="paint0_linear_599_923" x1="-6.7044" y1="52.3776" x2="43.8593" y2="13.5396" gradientUnits="userSpaceOnUse">
<stop stop-color="#847650"/>
<stop offset="0.18" stop-color="#98885D"/>
<stop offset="0.56" stop-color="#BCA976"/>
<stop offset="0.77" stop-color="#CBB680"/>
<stop offset="1" stop-color="#857751"/>
</linearGradient>
</defs>
</svg>
