<svg class="nav-icon" fill="none" stroke="#f8f7f4" stroke-miterlimit="10" stroke-width="1" xmlns="http://www.w3.org/2000/svg" viewBox="0 0 43.5 100.95" width="1rem" height="2.375rem">
    <g>
        <path class="laurel"
            d="M.21,100.5c17.64-8.2,30.17-29,30.17-53.29a66.79,66.79,0,0,0-5.53-26.9" />
        <path class="laurel"
            d="M7.06.6S14.45-.57,19.54,5.05s5.71,10.4,5.32,15.26a25.85,25.85,0,0,1-9.53-5c-1.83-1.76-3.82-6.12-5.09-8.55S8,2.36,7.06.6Z" />
        <path class="laurel"
            d="M29.63,37.07A66.55,66.55,0,0,1,27.87,19.5c.33-5.88,1.93-10.95,4.74-13a32.26,32.26,0,0,1,4.73,14.63C37.79,27.56,35.63,34.17,29.63,37.07Z" />
        <path class="laurel"
            d="M29.41,59a60.56,60.56,0,0,1,4.17-16.35c2.26-5.12,5.42-9,8.71-9.75a30.56,30.56,0,0,1-.44,14.87C40.15,53.63,36,58.69,29.41,59Z" />
        <path class="laurel"
            d="M22.51,78.91a41.88,41.88,0,0,1,8-12.34c3.41-3.42,8.31-4.7,11.66-3.82-.11,5-3.36,10-6.05,12.92C32.32,79.75,28.9,81.71,22.51,78.91Z" />
        <path class="laurel"
            d="M22.48,78.86a22.73,22.73,0,0,1-6-9.19,32.1,32.1,0,0,1-1.8-11.62,10.35,10.35,0,0,1,9.21,7.21C25.43,69.87,25.54,73.86,22.48,78.86Z" />
        <path class="laurel"
            d="M29.41,59a23.41,23.41,0,0,1-9.24-6c-2.5-2.55-4.38-6.54-5.59-10,5.15-1.63,8.9.22,11.15,2.86C28.82,49.48,30.39,53.11,29.41,59Z" />
        <path class="laurel"
            d="M29.57,37.05a11.26,11.26,0,0,1-10.29-1.81,43.21,43.21,0,0,1-8.36-8.19,9.4,9.4,0,0,1,12.27-1.3A14.52,14.52,0,0,1,29.57,37.05Z" />
        <path class="laurel"
            d="M9,95.05C6.41,92.29,5.72,87.94,6.55,83a50.76,50.76,0,0,1,4.32-12.84C14.13,73,15.52,78.43,15.3,82.4,15,87.67,13.83,91.75,9,95.05Z" />
        <path class="laurel"
            d="M9,95.09c3.94-3.37,8.39-7,11.73-8.12a16,16,0,0,1,12.35.9c-2.65,4.13-6.57,9-10.58,10.67C17.13,100.74,12.09,99.79,9,95.09Z" />
    </g>
</svg>
