<svg width="133" height="100" viewBox="0 0 133 100" fill="none"
               xmlns="http://www.w3.org/2000/svg">
               <g clip-path="url(#clip0_2653_138)">
                  <path
                     d="M115.012 7.02235C120.436 7.02235 121.31 11.4032 121.31 17.654V34.8764C121.31 35.3864 121.714 35.7918 122.223 35.7918H127.582C128.091 35.7918 128.495 35.3864 128.495 34.8764V17.2094C128.495 10.9062 124.557 7.49313 116.772 7.06159C116.198 7.03543 115.612 7.00928 115.012 7.00928"
                     fill="url(#paint0_linear_2653_138)" />
                  <path
                     d="M117.151 90.0615C111.727 90.0615 110.853 85.6807 110.853 79.4299V61.5013C110.853 60.9913 110.449 60.5859 109.94 60.5859H104.581C104.072 60.5859 103.668 60.9913 103.668 61.5013V79.8615C103.668 86.6223 108.206 90.0615 117.164 90.0615"
                     fill="url(#paint1_linear_2653_138)" />
                  <path
                     d="M20.8116 86.6876H7.18497V49.7842H18.7905C19.299 49.7842 19.7032 49.3788 19.7032 48.8688V48.2019C19.7032 47.6919 19.299 47.2865 18.7905 47.2865H7.18497V10.3701H20.0032C20.5117 10.3701 20.916 9.96469 20.916 9.45468V8.64391C20.916 8.1339 20.5117 7.72852 20.0032 7.72852H0V89.3422H20.8116C21.3202 89.3422 21.7244 88.9368 21.7244 88.4268V87.6161C21.7244 87.1061 21.3202 86.7007 20.8116 86.7007V86.6876Z"
                     fill="url(#paint2_linear_2653_138)" />
                  <path
                     d="M42.7586 6.99609C33.6698 6.99609 28.8711 10.5138 28.8711 17.1831V79.8744C28.8711 86.5436 33.6698 90.0614 42.7586 90.0614C51.8474 90.0614 56.646 86.5436 56.646 79.8744V47.5218H42.3022C41.7936 47.5218 41.3894 47.9272 41.3894 48.4372V48.9603C41.3894 49.4703 41.7936 49.8757 42.3022 49.8757H48.5483C49.0568 49.8757 49.4611 50.281 49.4611 50.791V79.4297C49.4611 85.9682 47.7007 88.2829 42.7586 88.2829C37.8164 88.2829 36.0561 86.1383 36.0561 79.4297V17.6146C36.0561 11.0761 37.8164 8.76149 42.7586 8.76149C47.7007 8.76149 49.4611 10.9061 49.4611 17.6146V39.9763C49.4611 40.4864 49.8653 40.8917 50.3738 40.8917H55.7332C56.2418 40.8917 56.646 40.4864 56.646 39.9763V17.1831C56.646 10.5138 51.8474 6.99609 42.7586 6.99609Z"
                     fill="url(#paint3_linear_2653_138)" />
                  <path
                     d="M79.0614 6.99609C70.116 6.99609 65.5781 10.4223 65.5781 17.1831V79.8744C65.5781 86.6352 70.116 90.0614 79.0614 90.0614C88.0067 90.0614 92.5446 86.6352 92.5446 79.8744V17.1831C92.5446 10.4223 88.0067 6.99609 79.0614 6.99609ZM85.3596 79.4428C85.3596 86.2298 83.8861 88.296 79.0614 88.296C73.6368 88.296 72.7631 85.6805 72.7631 79.4428V17.6146C72.7631 10.8277 74.2366 8.76149 79.0614 8.76149C84.4859 8.76149 85.3596 11.3769 85.3596 17.6146V79.4297V79.4428Z"
                     fill="url(#paint4_linear_2653_138)" />
                  <path
                     d="M106.874 0C102.923 15.1301 105.792 29.6195 116.706 41.1142C117.814 42.2649 119.066 43.5465 120.109 44.7496C120.905 45.665 121.778 46.7111 122.509 47.6788C128.937 55.9958 133.501 66.4444 132.875 77.1283C132.367 87.6814 125.756 97.2931 115.193 100C131.48 87.3022 126.434 68.2882 115.702 53.7596C113.968 51.3796 111.999 49.1042 110.03 46.8811C109.586 46.345 108.934 45.5603 108.517 44.998C101.541 36.0795 98.3719 24.3756 100.862 13.3124C101.945 8.51314 103.809 3.88388 106.861 0L106.874 0Z"
                     fill="url(#paint5_linear_2653_138)" />
               </g>
               <defs>
                  <linearGradient id="paint0_linear_2653_138" x1="-26.7839" y1="117.144" x2="149.091" y2="4.18244"
                     gradientUnits="userSpaceOnUse">
                     <stop stop-color="#706544" />
                     <stop offset="0.19" stop-color="#97875E" />
                     <stop offset="0.4" stop-color="#BBA876" />
                     <stop offset="0.51" stop-color="#CAB580" />
                     <stop offset="1" stop-color="#847851" />
                  </linearGradient>
                  <linearGradient id="paint1_linear_2653_138" x1="-5.44967" y1="150.36" x2="170.425" y2="37.4113"
                     gradientUnits="userSpaceOnUse">
                     <stop stop-color="#706544" />
                     <stop offset="0.19" stop-color="#97875E" />
                     <stop offset="0.4" stop-color="#BBA876" />
                     <stop offset="0.51" stop-color="#CAB580" />
                     <stop offset="1" stop-color="#847851" />
                  </linearGradient>
                  <linearGradient id="paint2_linear_2653_138" x1="-46.9957" y1="85.6807" x2="128.892" y2="-27.2677"
                     gradientUnits="userSpaceOnUse">
                     <stop stop-color="#706544" />
                     <stop offset="0.19" stop-color="#97875E" />
                     <stop offset="0.4" stop-color="#BBA876" />
                     <stop offset="0.51" stop-color="#CAB580" />
                     <stop offset="1" stop-color="#847851" />
                  </linearGradient>
                  <linearGradient id="paint3_linear_2653_138" x1="-37.541" y1="100.392" x2="138.333" y2="-12.5562"
                     gradientUnits="userSpaceOnUse">
                     <stop stop-color="#706544" />
                     <stop offset="0.19" stop-color="#97875E" />
                     <stop offset="0.4" stop-color="#BBA876" />
                     <stop offset="0.51" stop-color="#CAB580" />
                     <stop offset="1" stop-color="#847851" />
                  </linearGradient>
                  <linearGradient id="paint4_linear_2653_138" x1="-26.9007" y1="116.961" x2="148.974" y2="4.01239"
                     gradientUnits="userSpaceOnUse">
                     <stop stop-color="#706544" />
                     <stop offset="0.19" stop-color="#97875E" />
                     <stop offset="0.4" stop-color="#BBA876" />
                     <stop offset="0.51" stop-color="#CAB580" />
                     <stop offset="1" stop-color="#847851" />
                  </linearGradient>
                  <linearGradient id="paint5_linear_2653_138" x1="-16.5355" y1="133.098" x2="159.339" y2="20.1496"
                     gradientUnits="userSpaceOnUse">
                     <stop stop-color="#706544" />
                     <stop offset="0.19" stop-color="#97875E" />
                     <stop offset="0.4" stop-color="#BBA876" />
                     <stop offset="0.51" stop-color="#CAB580" />
                     <stop offset="1" stop-color="#847851" />
                  </linearGradient>
                  <clipPath id="clip0_2653_138">
                     <rect width="132.955" height="100" fill="white" />
                  </clipPath>
               </defs>
            </svg>
