<svg xmlns="http://www.w3.org/2000/svg" xmlns:xlink="http://www.w3.org/1999/xlink" viewBox="0 0 194.09 148.77">
   <linearGradient id="SVGID_1_" gradientUnits="userSpaceOnUse" x1="27.4061" y1="1.4593" x2="156.7371" y2="144.3072">
      <stop offset="5.106587e-03" style="stop-color:#9b8e7a" />
      <stop offset="1" style="stop-color:#ccc4b9" />
   </linearGradient>
   <path class="gradient-logo" d="M30.6,127h-20V73h17c0.7,0,1.4-0.6,1.4-1.3v-1c0-0.7-0.6-1.3-1.3-1.3c0,0,0,0,0,0h-17v-54h18.8
   c0.7,0,1.3-0.6,1.4-1.3v-1.2c0-0.7-0.6-1.3-1.4-1.3H0v119.4h30.6c0.7,0,1.3-0.6,1.3-1.3v-1.2C31.9,127.6,31.3,127,30.6,127z
   M62.8,10.2c-13.4,0-20.4,5.2-20.4,14.9V117c0,9.8,7,14.9,20.4,14.9s20.4-5.2,20.4-14.9V69.6H62.1c-0.7,0-1.3,0.6-1.3,1.3
   c0,0,0,0,0,0v0.8c0,0.7,0.6,1.3,1.3,1.3h9.2c0.7,0,1.3,0.6,1.3,1.3v41.9c0,9.6-2.6,13-9.8,13c-7.5,0-9.9-3.2-9.9-13V25.8
   c0-9.6,2.6-13,9.8-13c7.4,0,9.8,3.1,9.8,13v32.7c0,0.7,0.6,1.4,1.3,1.4c0,0,0,0,0,0h7.9c0.7,0,1.3-0.6,1.3-1.3V25.2
   C83.2,15.4,76.1,10.2,62.8,10.2z M116.1,10.2c-13.1,0-19.8,5-19.8,14.9V117c0,9.9,6.7,14.9,19.8,14.9s19.8-5,19.8-14.9V25.2
   C135.9,15.3,129.2,10.2,116.1,10.2z M125.4,116.3c0,9.9-2.2,13-9.2,13c-8,0-9.2-3.8-9.2-13V25.8c0-9.9,2.2-13,9.2-13
   c8,0,9.2,3.8,9.2,13V116.3z M169.9,10.3c6.8,0,7.9,5.4,7.9,13.2v27.8c0,0.6,0.5,1.1,1.1,1.1h6.7c0.6,0,1.1-0.5,1.1-1.1V22.9
   C186.7,14.5,181.1,10.3,169.9,10.3 M168.7,131.9c-6.8,0-7.9-5.5-7.9-13.2V90.9c0-0.6-0.5-1.1-1.1-1.1H153c-0.6,0-1.1,0.5-1.1,1.1
   v28.3C151.9,127.6,157.5,131.9,168.7,131.9 M155.8,0c-5.8,22.5-1.6,44.1,14.4,61.2c1.6,1.7,3.5,3.6,5,5.4c1.2,1.4,2.4,2.9,3.5,4.3
   c9.4,12.4,16.1,27.9,15.2,43.8c-0.7,15.7-10.5,30-26,34c23.9-18.9,16.5-47.2,0.7-68.8c-2.6-3.5-5.4-6.9-8.3-10.2
   c-0.7-0.8-1.6-2-2.2-2.8C148,53.7,143.3,36.3,147,19.8C148.4,12.6,151.4,5.9,155.8,0z" />
</svg>
