<svg xmlns="http://www.w3.org/2000/svg" viewBox="0 0 50 50">
  <defs>
    <style>
      .cls-1 {
        fill: none;
      }

      .cls-2 {
        fill: #1c2c44;
      }
    </style>
  </defs>
  <g id="Capa_2" data-name="Capa 2">
    <g id="Capa_1-2" data-name="Capa 1">
      <g>
        <rect class="cls-1" width="50" height="50"/>
        <path class="cls-2" d="M25,0A17.31,17.31,0,0,0,7.69,17.31C7.69,26.86,25,39.63,25,49.18c0-9.55,17.31-22.32,17.31-31.87A17.31,17.31,0,0,0,25,0Zm0,28.69A11.39,11.39,0,1,1,36.39,17.31,11.39,11.39,0,0,1,25,28.69ZM24.75,9.87c.94,0,1.09.76,1.09,1.84v3a.16.16,0,0,0,.16.16h.93a.16.16,0,0,0,.16-.16V11.63c0-1.17-.79-1.76-2.34-1.76M23.33,8.65A7.25,7.25,0,0,0,25,15.77c.19.2.41.42.59.63s.29.34.42.51A7.77,7.77,0,0,1,27.85,22a4.2,4.2,0,0,1-3.07,4c2.82-2.2,1.95-5.49.09-8a14.19,14.19,0,0,0-1-1.19,4.19,4.19,0,0,1-.26-.33A6.61,6.61,0,0,1,22.29,11a6,6,0,0,1,1-2.31m1.79,15.59c-.94,0-1.1-.76-1.1-1.84V19.3a.15.15,0,0,0-.16-.16h-.92a.16.16,0,0,0-.16.16v3.17q0,1.77,2.34,1.77"/>
      </g>
    </g>
  </g>
</svg>
