<?xml version="1.0" encoding="utf-8"?>
<!-- Generator: Adobe Illustrator 25.0.1, SVG Export Plug-In . SVG Version: 6.00 Build 0)  -->
<svg version="1.1" id="Capa_1" xmlns="http://www.w3.org/2000/svg" xmlns:xlink="http://www.w3.org/1999/xlink" x="0px" y="0px"
	 viewBox="0 0 1920 1080" style="enable-background:new 0 0 1920 1080;" xml:space="preserve">
<style type="text/css">
	.st0{fill:#0A1D37;}
</style>
<path class="st0" d="M0,0v1080h1920V0H0z M967.5,519.7v10.9c0,0.3-0.3,0.6-0.6,0.6h-3.3c-0.3,0-0.6-0.3-0.6-0.6V520
	c0-3.9-0.5-6.6-3.9-6.6C964.7,513.4,967.5,515.5,967.5,519.7z M952,558.5v-11.4c0-0.3,0.3-0.6,0.6-0.6h3.3c0.3,0,0.6,0.3,0.6,0.6
	v11.1c0,3.9,0.5,6.6,3.9,6.6C954.9,564.8,952.1,562.7,952,558.5z M970.2,556.8c-0.3,6.5-4.4,12.5-11,14.2c10.1-7.9,7-19.6,0.3-28.6
	c-1.1-1.5-2.3-2.9-3.5-4.3c-0.3-0.3-0.7-0.8-0.9-1.2c-4.3-5.5-6.3-12.8-4.8-19.6c0.7-3,1.8-5.8,3.7-8.2c-2.5,9.4-0.7,18.3,6.1,25.5
	c0.7,0.7,1.5,1.5,2.1,2.3c0.5,0.6,1,1.2,1.5,1.8C967.7,543.7,970.6,550.2,970.2,556.8z"/>
</svg>
