<?xml version="1.0" encoding="utf-8"?>
<!-- Generator: Adobe Illustrator 25.0.1, SVG Export Plug-In . SVG Version: 6.00 Build 0)  -->
<svg version="1.1" id="Capa_1" xmlns="http://www.w3.org/2000/svg" xmlns:xlink="http://www.w3.org/1999/xlink" x="0px" y="0px"
	 viewBox="0 0 587.3 477" style="enable-background:new 0 0 587.3 477;" xml:space="preserve">
<style type="text/css">
	.st0{fill:none;stroke:#1D274C;stroke-width:2;stroke-linecap:round;stroke-miterlimit:10;stroke-dasharray:9.7785,9.7785;}
	.st1{fill:none;stroke:#1D274C;stroke-width:2;stroke-linecap:round;stroke-miterlimit:10;stroke-dasharray:10.0754,10.0754;}
	.st2{fill:none;stroke:#1D274C;stroke-width:2;stroke-linecap:round;stroke-miterlimit:10;stroke-dasharray:9.668,9.668;}
	.st3{fill:none;stroke:#1D274C;stroke-width:2;stroke-linecap:round;stroke-miterlimit:10;stroke-dasharray:9.8908,9.8908;}
	.st4{fill:none;stroke:#1D274C;stroke-width:2;stroke-miterlimit:10;}
	.st5{fill:none;stroke:#1D274C;stroke-width:2;stroke-linecap:round;stroke-miterlimit:10;stroke-dasharray:5;}
	.st6{fill:#273E60;}
	.st7{fill:#395989;}
	.st8{fill:#33507C;}
	.st9{fill:#305284;}
	.st10{fill:#1C2C44;}
	.st11{fill:#E8E4DD;}
	.st12{fill:none;stroke:#273E60;stroke-width:6;stroke-linecap:round;stroke-miterlimit:10;}
</style>
<g>
	<g>
		
			<ellipse transform="matrix(0.9951 -9.853759e-02 9.853759e-02 0.9951 -17.6435 50.8842)" class="st0" cx="506.3" cy="204.1" rx="59.1" ry="59.1"/>
	</g>
	<g>
		
			<ellipse transform="matrix(7.088891e-02 -0.9975 0.9975 7.088891e-02 131.5553 695.003)" class="st1" cx="438.9" cy="276.9" rx="60.9" ry="60.9"/>
	</g>
	<g>
		
			<ellipse transform="matrix(0.7071 -0.7071 0.7071 0.7071 -101.1641 95.6997)" class="st2" cx="64.9" cy="170" rx="43.1" ry="43.1"/>
	</g>
	<g>
		
			<ellipse transform="matrix(0.7071 -0.7071 0.7071 0.7071 -154.265 198.9584)" class="st3" cx="163" cy="285.7" rx="132.2" ry="132.2"/>
	</g>
	<circle class="st4" cx="242.9" cy="22.2" r="4.3"/>
	<circle class="st4" cx="483.1" cy="60.2" r="4.3"/>
	<circle class="st4" cx="491.8" cy="340.3" r="4.3"/>
	<circle class="st4" cx="118.3" cy="201.9" r="4.3"/>
	<g>
		<line class="st5" x1="78.8" y1="238.7" x2="78.8" y2="253.6"/>
		<line class="st5" x1="86.2" y1="246.1" x2="71.3" y2="246.1"/>
	</g>
	<g>
		<line class="st5" x1="128" y1="444.1" x2="128" y2="459.1"/>
		<line class="st5" x1="135.5" y1="451.6" x2="120.6" y2="451.6"/>
	</g>
	<g>
		<line class="st5" x1="174.5" y1="83.6" x2="174.5" y2="98.6"/>
		<line class="st5" x1="181.9" y1="91.1" x2="167" y2="91.1"/>
	</g>
	<g>
		<line class="st5" x1="530.4" y1="97.6" x2="530.4" y2="112.5"/>
		<line class="st5" x1="537.9" y1="105" x2="523" y2="105"/>
	</g>
	<g>
		<g id="XMLID_1_">
			<g>
				<path class="st6" d="M194.8,302.4c0.1,0.1,0.2,0.1,0.3,0.2c0,0,0,0,0,0l6.7-1.8c-0.1-0.1-0.2-0.1-0.3-0.2L194.8,302.4z"/>
				<path class="st7" d="M181.7,305.9l0.1,0.2l13.4-3.5c-0.1-0.1-0.2-0.1-0.3-0.2L181.7,305.9z"/>
				<path class="st6" d="M103.1,258.1c-8.3,4.5-6.7,23.8,3.6,43.2s25.5,31.5,33.9,27c-10.5-8-19.5-18.4-26.1-30.9
					c-6.8-12.6-10.4-26-11.2-39.3L103.1,258.1z"/>
				<path class="st7" d="M140.6,328.2c1.8,1.4,3.6,2.7,5.5,3.9l0,0l27.1-16.1l-1.9-7l10.3-2.8l-0.1-0.2l13.2-3.5
					c-12.2-8.3-22.7-19.7-30.2-33.8c-9.2-17.2-12.6-35.9-10.9-53.8c0,0-34.3,19.3-45.7,25.9c-2.4,1.4-4.5,3.5-4.7,6.1
					c-0.2,3.7-0.2,7.5,0,11.2c0.8,13.3,4.4,26.7,11.2,39.3C121.1,309.9,130.2,320.3,140.6,328.2z"/>
				<path class="st8" d="M146.1,332.1L146.1,332.1c0.5,0.4,1,0.7,1.5,1l0,0c3.3,2.2,7.6,2.3,11.1,0.3l0.1,0l16.5-9.8l-2-7.6
					L146.1,332.1z"/>
				<path class="st6" d="M153.7,214.9c-1.7,17.8,1.7,36.5,10.9,53.8c7.5,14.1,18,25.5,30.2,33.8l6.7-1.8c-0.4-0.2-0.7-0.5-1-0.7
					c-11.7-8.2-21.8-19.4-29.1-33c-9.6-18-12.9-37.6-10.6-56.1L153.7,214.9z"/>
				<path class="st7" d="M160.8,210.9c-2.3,18.5,1,38.1,10.6,56.1c7.3,13.6,17.4,24.8,29.1,33l44.3-10.6c3.2-9.6,4.9-19.8,4.9-30.5
					c0-36.5-20.2-68.3-50-84.9l-34.9,34.7L160.8,210.9z"/>
				<polygon class="st7" points="171.4,308.9 173.2,316 182.8,310.3 181.7,306.2 				"/>
				<polygon class="st8" points="173.2,316 175.2,323.6 184.8,317.9 182.8,310.3 				"/>
				<path class="st9" d="M175.2,323.6l7.2,27.6c3.4-1.1,6.8-2.4,10.1-3.9l-7.7-29.4L175.2,323.6z"/>
				<path class="st7" d="M181.7,306.2l1.1,4.1l12.6-7.5c-0.1-0.1-0.2-0.1-0.3-0.2c0,0,0,0,0,0L181.7,306.2z"/>
				<path class="st7" d="M182.5,351.2l18.3,69.8c0.6,2.2,2.8,3.4,4.9,2.9l18.2-4.9c0.4-0.1,0.9-0.3,1.2-0.6l-9.1,2.4
					c-2.1,0.6-4.4-0.7-4.9-2.9l-18.6-70.7C189.3,348.8,185.9,350.1,182.5,351.2z"/>
				<path class="st8" d="M182.8,310.3l2,7.6l17.9-10.6c-2.5-1.4-4.9-2.8-7.3-4.4L182.8,310.3z"/>
				<path class="st9" d="M184.8,317.9l7.7,29.4c11.3-5.1,21.4-12.3,29.9-21.1l-6.3-23.9l-8.7,2.1l-4.8,2.9L184.8,317.9z"/>
				<path class="st7" d="M192.5,347.3l18.6,70.7c0.6,2.2,2.8,3.4,4.9,2.9l9.1-2.4c1.4-0.9,2.1-2.6,1.6-4.3l-13.4-51
					c-1.1-4.3,1.4-8.6,5.7-9.8l2.1-0.6c1.8-0.5,3.3-1.5,4.3-2.9c1.4-1.9,2-4.4,1.4-6.9l-4.4-16.7C214,335,203.8,342.2,192.5,347.3z"
					/>
				<path class="st6" d="M201.8,300.8l-6.7,1.8c0.1,0.1,0.2,0.1,0.3,0.2c2.4,1.6,4.8,3.1,7.3,4.4l4.8-2.9
					C205.5,303.3,203.7,302.1,201.8,300.8L201.8,300.8z"/>
				<path class="st7" d="M237.6,136.3l-38,37.7c29.8,16.6,50,48.4,50,84.9c0,10.6-1.7,20.9-4.9,30.5l76.6-18.3l6.8-1.6l25.9-6.2
					l0.1-0.1c-22.5-14.6-43.8-37.6-59.5-66.9c-17.2-32.1-24.4-65.7-22.3-94.3l-33.2,32.9L237.6,136.3z"/>
				<path class="st8" d="M200.5,299.9c0.4,0.2,0.7,0.5,1,0.7l23.6-6.3l1.4,5.5l15.7-3.8c0.9-2.2,1.8-4.5,2.5-6.7L200.5,299.9z"/>
				<path class="st8" d="M201.5,300.6c0.1,0.1,0.2,0.1,0.3,0.2h0l13.1-3.5l1.3,5l10.4-2.5l-1.4-5.5L201.5,300.6z"/>
				<path class="st8" d="M214.9,297.4l-13.1,3.5c1.8,1.3,3.7,2.5,5.7,3.6l8.7-2.1L214.9,297.4z"/>
				<path class="st6" d="M219,353.3c-4.3,1.1-6.8,5.5-5.7,9.8l13.4,51c0.4,1.7-0.3,3.4-1.6,4.3l9.1-2.4c2.1-0.6,3.4-2.8,2.8-4.9
					L223.6,360c-1-3.8,0.9-7.7,4.4-9.3l-2.6-0.9c-1,1.4-2.5,2.4-4.3,2.9L219,353.3z"/>
				<path class="st6" d="M216.2,302.3l6.3,23.9c3-3.1,5.9-6.5,8.4-10l-4.3-16.4L216.2,302.3z"/>
				<path class="st6" d="M222.4,326.2l4.4,16.7c0.7,2.5,0.1,5-1.4,6.9l2.6,0.9c0.4-0.2,0.8-0.3,1.3-0.5l2.1-0.6
					c4.3-1.1,6.8-5.5,5.7-9.8l-6.2-23.7C228.3,319.7,225.5,323.1,222.4,326.2z"/>
				<path class="st8" d="M242.3,296.1l75.1-18l6.8-1.6l37.3-8.9c-2.5-1.4-5-2.9-7.4-4.4l-0.1,0.1l-25.9,6.2l-6.8,1.6l-76.6,18.3
					C244,291.6,243.2,293.9,242.3,296.1z"/>
				<path class="st6" d="M390.1,260.2c-25.5-9.9-51.8-33.2-71.1-65.5c-1.7-2.8-3.3-5.6-4.8-8.5c-1.8-3.4-3.5-6.9-5.1-10.3
					c-26.6-57.4-21-116.6,14.2-135.4c36.9-19.7,92.5,12.1,125,71.1c-35.2-64.3-97.4-97.9-139.7-75.3c-21.8,11.6-34,35.9-36.2,65.6
					c-2.1,28.6,5.1,62.2,22.3,94.3c15.7,29.3,36.9,52.4,59.5,66.9c2.4,1.6,4.9,3.1,7.4,4.4c25.7,14.3,52.4,17.3,73.9,5.8
					c35.4-18.9,45.7-71.3,28.3-125.9c15.5,49.4,7.2,95.9-23.3,112.2C425.7,267.4,408.1,267.1,390.1,260.2z"/>
				<path class="st7" d="M295.4,87.8c3.9-18.5,13.1-33.1,27.4-40.8c35.7-19.1,89.7,12.3,120.6,70.1c30.9,57.8,27,120.1-8.7,139.2
					c-13,6.9-28.4,7.2-44.2,1.9c-0.1,0.7-0.3,1.3-0.5,1.9c18,7,35.6,7.3,50.4-0.6c30.5-16.3,38.8-62.8,23.3-112.2
					c-0.2-0.8-0.5-1.5-0.7-2.3c-0.2-0.7-0.5-1.4-0.7-2.1c-3.1-9-6.9-18-11.5-26.9c-0.4-0.8-0.8-1.5-1.2-2.3s-0.8-1.5-1.2-2.3
					c-32.5-59.1-88.1-90.8-125-71.1c-35.2,18.8-40.9,78-14.2,135.4c-4.4-9.6-7.9-19.3-10.5-28.8C292.8,125.6,291.8,105,295.4,87.8z"
					/>
				<path class="st10" d="M295.4,87.8c-3.6,17.2-2.6,37.8,3.1,59.3h0l55.4-15.7C336.6,109.6,315.7,94.3,295.4,87.8z"/>
				<path class="st7" d="M298.6,147.1L298.6,147.1c2.5,9.5,6,19.1,10.4,28.8c1.6,3.4,3.3,6.9,5.1,10.3c1.5,2.9,3.1,5.7,4.8,8.5
					c4.3,7.1,8.9,13.8,13.8,20l44.7-37.7l0.5-1c-5.8-2.6-11.5-8.1-15.6-15.6c-4.4-8.2-5.6-16.8-4-23.2v0c-1.4-2-2.9-3.9-4.4-5.8
					L298.6,147.1z"/>
				<path class="st8" d="M322.8,47c-14.3,7.7-23.5,22.3-27.4,40.8c20.3,6.5,41.1,21.8,58.6,43.6l10.7-3c8.4-4.5,20.9,2.6,27.9,15.8
					c7.1,13.2,6,27.6-2.3,32l-7.5,6.5c10,27.1,12.5,53.9,7.7,75.5c15.8,5.3,31.3,5,44.2-1.9c35.7-19.1,39.6-81.4,8.7-139.2
					C412.5,59.3,358.5,27.9,322.8,47z"/>
				<path class="st7" d="M332.8,214.7c-4.9-6.2-9.5-12.8-13.8-20c19.3,32.3,45.5,55.6,71.1,65.5c0.2-0.6,0.3-1.3,0.5-1.9
					c-17.7-5.9-36-18.7-52-36.8C336.6,219.2,334.7,217,332.8,214.7z"/>
				<path class="st8" d="M377.5,177l-44.7,37.7c1.8,2.3,3.7,4.6,5.6,6.7l44.4-38.6c-0.7-1.9-1.4-3.9-2.2-5.8c-0.9-0.2-1.8-0.6-2.6-1
					L377.5,177z"/>
				<path class="st10" d="M382.9,182.7l-44.4,38.6c16,18.1,34.3,31,52,36.8C395.3,236.6,392.9,209.8,382.9,182.7z"/>
				<path class="st7" d="M364.7,128.4l-10.7,3c1.5,1.9,3,3.8,4.4,5.8C359.4,133.2,361.5,130.1,364.7,128.4z"/>
				<path class="st6" d="M358.4,137.2c-1.6,6.4-0.4,15,4,23.2c4,7.5,9.8,13.1,15.6,15.6c0.9,0.4,1.8,0.7,2.6,1
					c3.5,1,6.8,0.8,9.7-0.7c8.4-4.5,9.4-18.8,2.3-32c-7.1-13.2-19.6-20.3-27.9-15.8C361.5,130.1,359.4,133.2,358.4,137.2
					L358.4,137.2z M369.2,156.8c-3.9-7.2-3.3-15.1,1.3-17.6c4.6-2.4,11.5,1.4,15.3,8.7c3.9,7.2,3.3,15.1-1.3,17.6
					C380,167.9,373.1,164,369.2,156.8z"/>
				<path class="st11" d="M370.5,139.2c-4.6,2.4-5.1,10.3-1.3,17.6c3.9,7.3,10.7,11.1,15.3,8.7c4.6-2.4,5.1-10.3,1.3-17.6
					C381.9,140.6,375.1,136.7,370.5,139.2z"/>
				<path class="st8" d="M380.6,177c0.8,1.9,1.5,3.9,2.2,5.8l7.5-6.5C387.4,177.8,384.1,178,380.6,177z"/>
			</g>
			<g>
			</g>
		</g>
	</g>
	<line class="st12" x1="151.3" y1="272.7" x2="125.4" y2="287.3"/>
	<line class="st12" x1="156.2" y1="281.3" x2="130.3" y2="296"/>
	<line class="st12" x1="161.1" y1="290" x2="135.2" y2="304.7"/>
</g>
</svg>
