<svg width="304" height="49" viewBox="0 0 304 49" fill="none" xmlns="http://www.w3.org/2000/svg">
<path d="M217.536 29.1296C216.867 29.1296 216.279 28.9657 215.813 28.6175C215.326 28.2692 215.002 27.8186 214.84 27.245L215.002 27.0196V28.3717C215.002 28.6175 214.941 28.7814 214.82 28.9043C214.698 29.0272 214.536 29.0886 214.313 29.0886C214.09 29.0886 213.927 29.0272 213.806 28.9043C213.684 28.7814 213.623 28.597 213.623 28.3717V18.6823C213.623 18.4365 213.684 18.2726 213.806 18.1497C213.927 18.0268 214.09 17.9653 214.313 17.9653C214.536 17.9653 214.718 18.0268 214.84 18.1497C214.961 18.2726 215.022 18.4365 215.022 18.6823V23.148H214.86C215.022 22.5949 215.347 22.1442 215.833 21.8165C216.32 21.4887 216.888 21.3043 217.536 21.3043C218.185 21.3043 218.773 21.4682 219.28 21.7755C219.787 22.0828 220.152 22.5334 220.436 23.1275C220.699 23.7011 220.841 24.3976 220.841 25.217C220.841 26.0364 220.699 26.7124 220.436 27.3064C220.152 27.9005 219.767 28.3512 219.28 28.6584C218.794 28.9657 218.206 29.1296 217.557 29.1296H217.536ZM217.232 28.0029C217.678 28.0029 218.064 27.9005 218.388 27.6752C218.712 27.4498 218.976 27.1426 219.159 26.7329C219.341 26.3232 219.442 25.811 219.442 25.1965C219.442 24.2952 219.24 23.5987 218.854 23.1275C218.469 22.6564 217.922 22.4105 217.253 22.4105C216.807 22.4105 216.421 22.513 216.077 22.7383C215.752 22.9431 215.489 23.2709 215.306 23.6806C215.124 24.0903 215.043 24.6024 215.043 25.217C215.043 26.1183 215.245 26.8148 215.631 27.3064C216.036 27.7776 216.563 28.0234 217.232 28.0234V28.0029Z" fill="#FFFFF0"/>
<path d="M224.227 31.8746C224.065 31.8746 223.923 31.8336 223.822 31.7517C223.721 31.6697 223.66 31.5468 223.639 31.4034C223.639 31.26 223.639 31.0962 223.721 30.9323L224.755 28.556V29.1501L221.855 22.3491C221.774 22.1852 221.754 22.0213 221.774 21.8779C221.794 21.7345 221.855 21.6116 221.977 21.5297C222.099 21.4477 222.261 21.3863 222.463 21.3863C222.626 21.3863 222.768 21.4273 222.869 21.5092C222.97 21.5911 223.072 21.7345 223.153 21.9394L225.566 27.921H225.14L227.593 21.9394C227.674 21.7345 227.776 21.5911 227.877 21.5092C227.999 21.4273 228.141 21.3863 228.343 21.3863C228.526 21.3863 228.648 21.4273 228.749 21.5297C228.85 21.6321 228.911 21.7345 228.931 21.8779C228.952 22.0213 228.931 22.1852 228.85 22.3491L224.998 31.3625C224.897 31.5878 224.795 31.7312 224.674 31.8131C224.572 31.8951 224.41 31.936 224.227 31.936V31.8746Z" fill="#FFFFF0"/>
<path d="M250.748 41.8712H244.219V24.0698H249.755C249.978 24.0698 250.221 23.865 250.221 23.6396V23.3119C250.221 23.0865 250.018 22.8817 249.795 22.8817H244.26V5.10075H250.383C250.606 5.10075 250.809 4.8959 250.849 4.67057V4.28135C250.849 4.05602 250.647 3.85117 250.383 3.85117H240.772V43.1823H250.748C250.971 43.1823 251.174 42.9774 251.174 42.7521V42.3629C251.174 42.0761 250.971 41.8712 250.748 41.8712ZM261.231 3.38002C256.851 3.38002 254.58 5.10075 254.58 8.2964V38.5732C254.58 41.8098 256.871 43.4895 261.231 43.4895C265.59 43.4895 267.881 41.7688 267.881 38.5732V22.9636H261.008C260.785 22.9636 260.582 23.1685 260.582 23.3938V23.6601C260.582 23.8855 260.785 24.0903 261.008 24.0903H264.008C264.231 24.0903 264.434 24.2952 264.434 24.5205V38.3273C264.434 41.482 263.583 42.6087 261.231 42.6087C258.879 42.6087 258.007 41.564 258.007 38.3273V8.54222C258.007 5.38754 258.858 4.26087 261.21 4.26087C263.562 4.26087 264.414 5.28512 264.414 8.54222V19.3173C264.414 19.5426 264.617 19.7885 264.84 19.7885H267.415C267.638 19.7885 267.841 19.5836 267.841 19.3583V8.35786C267.901 5.12124 265.59 3.42099 261.251 3.42099L261.231 3.38002ZM278.627 3.38002C274.349 3.38002 272.18 5.01881 272.18 8.2964V38.5732C272.18 41.8303 274.369 43.4895 278.627 43.4895C282.885 43.4895 285.075 41.8507 285.075 38.5732V8.31689C285.075 5.05978 282.885 3.38002 278.627 3.38002ZM281.648 38.3478C281.648 41.6049 280.939 42.6292 278.647 42.6292C276.032 42.6292 275.647 41.3796 275.647 38.3478V8.52174C275.647 5.26463 276.356 4.24038 278.647 4.24038C281.263 4.24038 281.648 5.48997 281.648 8.52174V38.3478ZM296.166 3.42099C298.376 3.42099 298.741 5.20318 298.741 7.7638V16.9206C298.741 17.1254 298.903 17.2893 299.106 17.2893H301.295C301.498 17.2893 301.66 17.1254 301.66 16.9206V7.55895C301.66 4.79348 299.836 3.4005 296.186 3.4005M295.78 43.4895C293.57 43.4895 293.205 41.6869 293.205 39.1467V29.99C293.205 29.7851 293.043 29.6212 292.84 29.6212H290.651C290.448 29.6212 290.286 29.7851 290.286 29.99V39.3106C290.286 42.0761 292.111 43.4895 295.76 43.4895M291.563 0.0204849C289.677 7.43604 291.036 14.5443 296.267 20.1777C296.794 20.7308 297.402 21.3658 297.889 21.9599C298.274 22.431 298.68 22.9227 299.025 23.3733C302.086 27.4498 304.276 32.5711 303.972 37.7947C303.749 42.9774 300.545 47.689 295.497 49C303.282 42.7726 300.87 33.4519 295.72 26.3232C294.868 25.176 293.956 24.0493 293.003 22.9636C292.78 22.6973 292.475 22.3081 292.293 22.0418C289.008 17.699 287.467 11.9632 288.664 6.51421C289.13 4.13796 290.103 1.92559 291.543 0L291.563 0.0204849Z" fill="#FFFFF0"/>
<path d="M196.355 27.8034H200.568V26.6561C200.568 18.3304 195.399 11.9058 185.224 11.9058C175.163 11.9058 169.346 19.2482 169.346 27.8525C169.346 36.4569 174.401 43.5207 185.322 43.5207C193.552 43.5207 198.721 39.0628 200.438 32.7365L193.974 30.9993C192.888 35.1294 190.198 37.5386 185.095 37.5386C178.792 37.5386 175.73 33.5724 175.73 27.787H196.323L196.355 27.8034ZM175.811 26.6889C176.264 21.641 179.521 17.937 185.289 17.937C191.316 17.937 194.119 21.559 194.217 26.6889H175.811ZM18.8108 22.8046C26.9768 22.2638 31.7564 19.3137 31.7564 13.1513C31.7564 7.21842 27.5601 3.23582 18.2437 3.23582H0V42.9798H17.9197C27.3332 42.9798 32.8744 39.3906 32.8744 32.1957C32.8744 25.4761 27.6573 23.1652 18.8108 22.7882M6.56192 9.29986H16.8342C23.1368 9.29986 25.551 11.3649 25.551 15.2328C25.551 19.4776 22.6508 22.313 16.4615 22.313H6.56192V9.29986ZM16.5749 36.7191H6.56192V23.3946H16.7369C23.8983 23.3946 26.5879 25.6728 26.5879 29.9831C26.5879 34.1132 24.2224 36.7191 16.5749 36.7191ZM166.073 24.0502V42.9962H159.56V26.0169C159.56 20.674 157.68 17.3142 152.074 17.3142C147.716 17.3142 144.751 20.8051 144.168 26.5742V43.0126H137.654V25.9678C137.654 20.5757 135.775 17.3142 130.169 17.3142C125.276 17.3142 122.684 20.4774 122.052 26.4594V43.0126H115.538V12.4958H122.052V23.9683C123.348 16.2325 127.382 11.9058 133.345 11.9058C140.344 11.9058 143.941 16.1506 144.152 23.9519C145.351 16.4292 148.98 11.9058 155.25 11.9058C162.249 11.9058 166.073 16.6423 166.073 24.0502ZM61.7306 11.9058C51.5556 11.9058 45.8038 19.1498 45.8038 27.7542C45.8038 36.4569 51.3936 43.5371 61.7306 43.5371C72.1649 43.5371 77.6574 36.3586 77.6574 27.7542C77.6574 18.9859 71.9543 11.9058 61.7306 11.9058ZM61.7306 37.5386C55.3793 37.5386 52.2037 33.4085 52.2037 27.7378C52.2037 22.1327 55.5414 17.937 61.7306 17.937C67.9685 17.937 71.3062 21.9688 71.3062 27.7378C71.3062 33.3429 68.1791 37.5386 61.7306 37.5386ZM36.0014 0.744653H42.5147V42.9798H36.0014V0.744653ZM96.2738 11.9058C86.0988 11.9058 80.347 19.1498 80.347 27.7542C80.347 36.4569 85.9368 43.5371 96.2738 43.5371C106.708 43.5371 112.201 36.3586 112.201 27.7542C112.201 18.9859 106.497 11.9058 96.2738 11.9058ZM96.2738 37.5386C89.9226 37.5386 86.7469 33.4085 86.7469 27.7378C86.7469 22.1327 90.0846 17.937 96.2738 17.937C102.512 17.937 105.849 21.9688 105.849 27.7378C105.849 33.3429 102.722 37.5386 96.2738 37.5386Z" fill="#FFFFF0"/>
</svg>
