<?xml version="1.0" encoding="utf-8"?>
<!-- Generator: Adobe Illustrator 25.0.1, SVG Export Plug-In . SVG Version: 6.00 Build 0)  -->
<svg version="1.1" id="Capa_1" xmlns="http://www.w3.org/2000/svg" xmlns:xlink="http://www.w3.org/1999/xlink" x="0px" y="0px"
	 viewBox="0 0 512 512" style="enable-background:new 0 0 512 512;" xml:space="preserve">
<style type="text/css">
	.st0{fill:#EFEFEF;}
	.st1{fill:#0A1D37;}
</style>
<circle class="st0" cx="256" cy="255.7" r="245"/>
<path class="st1" d="M252.4,84.3c21.7,0,25.2,17.5,25.2,42.4v68.7c0,2,1.6,3.7,3.7,3.7h21.4c2,0,3.7-1.6,3.7-3.7V125
	C306.3,98,288.2,84.3,252.4,84.3"/>
<path class="st1" d="M219.8,56.3c-15.8,60.3-4.3,118.1,39.3,164c4.4,4.6,9.5,9.7,13.6,14.5c3.2,3.7,6.7,7.8,9.6,11.7
	c25.7,33.1,44,74.8,41.5,117.4c-2,42.1-28.5,80.4-70.7,91.2c65.1-50.6,45-126.5,2-184.4c-6.9-9.5-14.8-18.6-22.7-27.4
	c-1.8-2.1-4.4-5.3-6.1-7.5c-27.9-35.6-40.6-82.2-30.6-126.4C200.2,90.3,207.6,71.8,219.8,56.3"/>
<path class="st1" d="M260.9,415.5c-21.7,0-25.2-17.5-25.2-42.4v-71.5c0-2-1.6-3.7-3.7-3.7h-21.4c-2,0-3.7,1.6-3.7,3.7v73.2
	C207,401.8,225.1,415.5,260.9,415.5"/>
</svg>
