<svg class="nav-icon" fill="none" stroke="#f8f7f4" stroke-miterlimit="10" stroke-width="1" xmlns="http://www.w3.org/2000/svg" viewBox="0 0 43.5 100.95" width="1rem" height="2.375rem">
    <g>
        <path class="laurel"
            d="M43.29,100.5c-17.64-8.2-30.17-29-30.17-53.29a66.63,66.63,0,0,1,5.54-26.9" />
        <path class="laurel"
            d="M36.44.6S29.05-.57,24,5.05s-5.72,10.4-5.33,15.26a25.91,25.91,0,0,0,9.54-5C30,13.52,32,9.16,33.26,6.73S35.49,2.36,36.44.6Z" />
        <path class="laurel"
            d="M13.87,37.07A66.13,66.13,0,0,0,15.63,19.5c-.33-5.88-1.93-10.95-4.73-13A32.28,32.28,0,0,0,6.16,21.15C5.71,27.56,7.88,34.17,13.87,37.07Z" />
        <path class="laurel"
            d="M14.09,59A60.19,60.19,0,0,0,9.92,42.62c-2.25-5.12-5.42-9-8.7-9.75a30.44,30.44,0,0,0,.43,14.87C3.35,53.63,7.55,58.69,14.09,59Z" />
        <path class="laurel"
            d="M21,78.91a41.88,41.88,0,0,0-8-12.34c-3.41-3.42-8.3-4.7-11.66-3.82.11,5,3.37,10,6.05,12.92C11.18,79.75,14.6,81.71,21,78.91Z" />
        <path class="laurel"
            d="M21,78.86a22.63,22.63,0,0,0,6-9.19A32.1,32.1,0,0,0,28.8,58.05a10.35,10.35,0,0,0-9.22,7.21C18.07,69.87,18,73.86,21,78.86Z" />
        <path class="laurel"
            d="M14.09,59a23.41,23.41,0,0,0,9.24-6c2.5-2.55,4.38-6.54,5.59-10-5.15-1.63-8.9.22-11.15,2.86C14.69,49.48,13.11,53.11,14.09,59Z" />
        <path class="laurel"
            d="M13.93,37.05a11.28,11.28,0,0,0,10.3-1.81,43.46,43.46,0,0,0,8.35-8.19,9.4,9.4,0,0,0-12.27-1.3A14.55,14.55,0,0,0,13.93,37.05Z" />
        <path class="laurel"
            d="M34.53,95.05C37.1,92.29,37.79,87.94,37,83a51.56,51.56,0,0,0-4.32-12.84C29.37,73,28,78.43,28.2,82.4,28.5,87.67,29.67,91.75,34.53,95.05Z" />
        <path class="laurel"
            d="M34.54,95.09c-3.95-3.37-8.4-7-11.73-8.12a16,16,0,0,0-12.36.9C13.1,92,17,96.88,21,98.54,26.37,100.74,31.41,99.79,34.54,95.09Z" />
    </g>
</svg>
