<svg xmlns="http://www.w3.org/2000/svg" xmlns:xlink="http://www.w3.org/1999/xlink" viewBox="0 0 194.09 148.77">
  <defs>
    <style>
      .cls-1 {
        fill: url(#gold_deg);
      }

      .cls-2 {
        fill: url(#gold_deg-2);
      }

      .cls-3 {
        fill: url(#gold_deg-3);
      }

      .cls-4 {
        fill: url(#gold_deg-4);
      }

      .cls-5 {
        fill: url(#gold_deg-5);
      }

      .cls-6 {
        fill: url(#gold_deg-6);
      }
    </style>
    <linearGradient id="gold_deg" data-name="Degradado sin nombre 11" x1="-71.94" y1="15.97" x2="215.67" y2="198.48" gradientUnits="userSpaceOnUse">
      <stop offset="0" stop-color="#dcc376"/>
      <stop offset="0.17" stop-color="#c2a561"/>
      <stop offset="0.4" stop-color="#a6854a"/>
      <stop offset="0.62" stop-color="#926f3a"/>
      <stop offset="0.82" stop-color="#866130"/>
      <stop offset="1" stop-color="#825c2d"/>
    </linearGradient>
    <linearGradient id="gold_deg-2" x1="-58.18" y1="-5.71" x2="229.42" y2="176.81" xlink:href="#gold_deg"/>
    <linearGradient id="gold_deg-3" x1="-42.87" y1="-29.83" x2="244.73" y2="152.69" xlink:href="#gold_deg"/>
    <linearGradient id="gold_deg-4" x1="-7.11" y1="-86.19" x2="280.5" y2="96.33" xlink:href="#gold_deg"/>
    <linearGradient id="gold_deg-5" x1="-48.1" y1="-21.59" x2="239.5" y2="160.93" xlink:href="#gold_deg"/>
    <linearGradient id="gold_deg-6" x1="-31.22" y1="-48.19" x2="256.38" y2="134.33" xlink:href="#gold_deg"/>
  </defs>
  <g id="Capa_2" data-name="Capa 2">
    <g id="Capa_1-2" data-name="Capa 1">
      <g>
        <path class="cls-1" d="M30.56,127h-20v-54h17a1.35,1.35,0,0,0,1.35-1.35v-1a1.34,1.34,0,0,0-1.35-1.34h-17v-54H29.37a1.35,1.35,0,0,0,1.35-1.34v-1.2a1.35,1.35,0,0,0-1.35-1.34H0V130.82H30.56a1.34,1.34,0,0,0,1.34-1.34v-1.19A1.34,1.34,0,0,0,30.56,127Z"/>
        <path class="cls-2" d="M62.8,10.24c-13.35,0-20.4,5.16-20.4,14.92V117c0,9.77,7.05,14.93,20.4,14.93S83.2,126.73,83.2,117V69.59H62.13a1.34,1.34,0,0,0-1.35,1.34v.77A1.34,1.34,0,0,0,62.13,73H71.3a1.34,1.34,0,0,1,1.34,1.34v41.94c0,9.58-2.57,13-9.84,13-7.46,0-9.85-3.15-9.85-13V25.8c0-9.57,2.58-13,9.85-13,7.45,0,9.84,3.15,9.84,13V58.54A1.35,1.35,0,0,0,74,59.89h7.86a1.35,1.35,0,0,0,1.35-1.35V25.16C83.2,15.4,76.14,10.24,62.8,10.24Z"/>
        <path class="cls-3" d="M116.11,10.24c-13.14,0-19.8,5-19.8,14.92V117c0,9.91,6.66,14.93,19.8,14.93s19.81-5,19.81-14.93V25.16C135.92,15.26,129.25,10.24,116.11,10.24Zm9.25,106.08c0,9.94-2.16,13-9.25,13-8,0-9.25-3.82-9.25-13V25.8c0-9.93,2.16-13,9.25-13,8,0,9.25,3.82,9.25,13Z"/>
        <path class="cls-4" d="M169.93,10.26c6.77,0,7.86,5.45,7.86,13.21V51.28a1.14,1.14,0,0,0,1.14,1.14h6.68a1.14,1.14,0,0,0,1.14-1.14V22.93c0-8.41-5.66-12.67-16.82-12.67"/>
        <path class="cls-5" d="M168.68,131.89c-6.77,0-7.86-5.46-7.86-13.22V90.86a1.14,1.14,0,0,0-1.14-1.14H153a1.14,1.14,0,0,0-1.14,1.14v28.35c0,8.41,5.66,12.68,16.82,12.68"/>
        <path class="cls-6" d="M155.79,0c-5.8,22.51-1.59,44.06,14.45,61.17,1.62,1.71,3.47,3.62,5,5.41,1.17,1.36,2.45,2.91,3.53,4.35,9.44,12.36,16.15,27.92,15.23,43.81-.74,15.7-10.46,30-26,34,23.92-18.89,16.51-47.18.74-68.79-2.55-3.54-5.44-6.92-8.32-10.23-.66-.8-1.61-2-2.23-2.8C148,53.68,143.33,36.27,147,19.81A49.65,49.65,0,0,1,155.79,0Z"/>
      </g>
    </g>
  </g>
</svg>
