<?xml version="1.0" encoding="utf-8"?>
<!-- Generator: Adobe Illustrator 25.0.1, SVG Export Plug-In . SVG Version: 6.00 Build 0)  -->
<svg version="1.1" id="layer" xmlns="http://www.w3.org/2000/svg" xmlns:xlink="http://www.w3.org/1999/xlink" x="0px" y="0px"
	 viewBox="0 0 312 109" style="enable-background:new 0 0 312 109;" xml:space="preserve">
<style type="text/css">
	.st0{fill:#BDBDBD;}
</style>
<g>
	<path class="st0" d="M22.6,61.8c0,3.5,2.7,6.2,6.2,6.2s6.3-2.7,6.3-6.2s-2.8-6.3-6.3-6.3l0,0C25.3,55.5,22.6,58.3,22.6,61.8z"/>
	<path class="st0" d="M16.5,79.6c3.4,0.6,6.8,0.8,11.2,0.8c19.9,0,30.6-7.1,30.6-19.2c0-11.3-9.9-17.8-26.6-17.8
		c-3.5,0-6.2,0.1-8.8,0.3l-4,9.4c3.2-0.2,5.5-0.2,9.8-0.2c13.4,0,18.7,3.5,18.7,8.6c0,5-6.1,9.1-19.3,9.1c-2.7,0-5-0.1-7.4-0.4
		L16.5,79.6z M26.6,34.2c1.8-4.4,4.6-6,9.5-6h22.6L58,30c-0.6,1.5-3.1,8.2-10.5,8.2h-14c-5.8,0-8.8,0.4-8.8,0.4L26.6,34.2z
		 M198.8,48.4h7.9v31.8h-7.9V48.4z M287.1,64c0-7.8-1.3-10-4.8-10c-3.4,0-4.7,2.2-4.7,10.2s1.3,10.3,4.7,10.3
		C285.9,74.5,287.1,72.2,287.1,64z M269.2,64.2c0-11.7,5.2-16.5,13.2-16.5c8.3,0,13.2,4.7,13.2,16.5c0,11.9-5,16.5-13.2,16.5
		S269.2,76.2,269.2,64.2z M244.7,64.2c0-12.8,5.3-16.6,12.9-16.6c5.4,0,7.3,0.9,7.3,0.9l-0.2,6.4c0,0-3.2-0.7-6.5-0.7
		c-3.6,0-4.9,2-4.9,9.7c0,7.8,1.2,10.3,4.9,10.3c5,0,6.5-0.7,6.5-0.7l0.2,6.4c0,0-3.7,1-7.1,1C249.2,80.8,244.7,75.9,244.7,64.2z
		 M215.6,48.4h7.3l6.2,13.3c0.9,1.9,1.9,4.9,2.6,7.1l0.1,0.4c-0.1-1.9-0.5-6-0.5-9V48.4h6.9v31.8h-7.8l-5.7-12
		c-1.5-3.2-2.6-6.4-3.2-8.5c0,3,0.9,6.5,0.9,9.7v10.8h-7V48.4H215.6z M168.6,60.7c0-15.2,5.6-20.3,15.6-20.3c5.9,0,8.4,1.2,8.4,1.2
		l-0.2,6.8c0,0-4-0.9-7.7-0.9c-5.5,0-6.7,2.4-6.7,12.7c0,10.8,2,13.5,6.7,13.5c3.5,0,7.7-0.8,7.7-0.8l0.2,6.9c0,0-3.4,1.1-8.2,1.1
		C173.6,80.8,168.6,74.7,168.6,60.7L168.6,60.7z M144.4,48.4h17.9V55h-10.1v5.7h8.2V67h-8.2v6.5h11v6.7h-18.7
		C144.4,80.1,144.4,48.4,144.4,48.4z M119.7,48.4h7.8v25h9.7v6.8h-17.5V48.4L119.7,48.4z M93.8,48.4h17.9V55h-10.1v5.7h8V67h-8v6.5
		h10.9v6.7H93.8V48.4L93.8,48.4z M72.3,55.1h-6.7v-6.7h21.2v6.7H80v25h-7.8L72.3,55.1L72.3,55.1z"/>
</g>
</svg>
