<svg xmlns="http://www.w3.org/2000/svg" viewBox="0 0 101 101"  fill="none" stroke="#f8f7f4" stroke-miterlimit="10" stroke-width="1" width="2.625rem" height="2.625rem">
    <g data-name="g-icon">
        <circle class="g-icon" cx="50.5" cy="50.5" r="50" />
        <g class="logo-google">
            <g>
                <path class="g-icon"
                    d="M81.25,44.64h-30V57.09H68.51c-1.73,8.5-9.38,13.11-19.31,12.37a18,18,0,0,1-15.41-11c-5.61-13.88,4.33-27,17.44-27a18.6,18.6,0,0,1,11.86,4.25l9.38-9.37a32.08,32.08,0,0,0-19.95-8,32.22,32.22,0,1,0-1.29,64.41C67.34,82.72,82,71,82,50.5A26.8,26.8,0,0,0,81.25,44.64Z" />
                <path class="g-icon"
                    d="M81.25,44.64h-30V57.09H68.51c-1.73,8.5-9.38,13.11-19.31,12.37a18,18,0,0,1-15.41-11c-5.61-13.88,4.33-27,17.44-27a18.6,18.6,0,0,1,11.86,4.25l9.38-9.37a32.08,32.08,0,0,0-19.95-8,32.22,32.22,0,1,0-1.29,64.41C67.34,82.72,82,71,82,50.5A26.8,26.8,0,0,0,81.25,44.64Z" />
                <path class="g-icon"
                    d="M81.25,44.64h-30V57.09H68.51c-1.73,8.5-9.38,13.11-19.31,12.37a18,18,0,0,1-15.41-11c-5.61-13.88,4.33-27,17.44-27a18.6,18.6,0,0,1,11.86,4.25l9.38-9.37a32.08,32.08,0,0,0-19.95-8,32.22,32.22,0,1,0-1.29,64.41C67.34,82.72,82,71,82,50.5A26.8,26.8,0,0,0,81.25,44.64Z" />
                <g>
                    <polygon class="g-icon"
                        points="22.38 36.28 22.38 36.28 32.26 43.83 22.38 36.28" />
                    <polygon class="g-icon"
                        points="32.26 43.83 33.16 44.52 33.16 44.52 32.26 43.83" />
                </g>
                <path class="g-icon"
                    d="M51.23,82.72a30.74,30.74,0,0,0,21-8l-10.29-8A20.81,20.81,0,0,1,49.2,69.46a18,18,0,0,1-15.41-11c-.26-.66-.48-1.31-.67-2l-10.8,8.26A32.11,32.11,0,0,0,51.23,82.72Z" />
                <path class="g-icon"
                    d="M32.26,43.83l-9.88-7.55A31.63,31.63,0,0,0,19,49.81a32.26,32.26,0,0,0,3.3,15l10.8-8.26a19.67,19.67,0,0,1,0-12Z" />
                <path class="g-icon"
                    d="M33.16,44.52A19,19,0,0,1,51.23,31.46a18.6,18.6,0,0,1,11.86,4.25l9.38-9.37a32.08,32.08,0,0,0-19.95-8,32.45,32.45,0,0,0-30.14,18l9.88,7.55Z" />
            </g>
        </g>
    </g>
</svg>
