<?xml version="1.0" encoding="utf-8"?>
<!-- Generator: Adobe Illustrator 25.0.1, SVG Export Plug-In . SVG Version: 6.00 Build 0)  -->
<svg version="1.1" id="Capa_1" xmlns="http://www.w3.org/2000/svg" xmlns:xlink="http://www.w3.org/1999/xlink" x="0px" y="0px"
	 viewBox="0 0 399.9 399.9" style="enable-background:new 0 0 399.9 399.9;" xml:space="preserve">
<style type="text/css">
	.st0{fill:#1C2C44;}
</style>
<path class="st0" d="M199.9,6.5c-76.4,0-138.4,62-138.4,138.4c0,76.4,138.4,178.5,138.4,255c0-76.4,138.4-178.5,138.4-255
	C338.3,68.5,276.4,6.5,199.9,6.5z M199.9,236c-50.3,0-91.1-40.8-91.1-91.1s40.8-91.1,91.1-91.1S291,94.6,291,144.9
	S250.2,236,199.9,236z M197.9,85.4c7.5,0,8.7,6.1,8.7,14.7V124c0,0.7,0.6,1.3,1.3,1.3h7.4c0.7,0,1.3-0.6,1.3-1.3V99.6
	C216.6,90.2,210.4,85.4,197.9,85.4 M186.6,75.7c-5.5,20.9-1.5,41,13.6,56.9c1.5,1.6,3.3,3.4,4.7,5c1.1,1.3,2.3,2.7,3.3,4.1
	c8.9,11.5,15.3,26,14.4,40.7c-0.7,14.6-9.9,27.9-24.5,31.7c22.6-17.6,15.6-43.9,0.7-64c-2.4-3.3-5.1-6.5-7.9-9.5
	c-0.6-0.7-1.5-1.8-2.1-2.6c-9.7-12.4-14.1-28.5-10.6-43.9C179.8,87.5,182.4,81.1,186.6,75.7 M200.9,200.4c-7.5,0-8.7-6.1-8.7-14.7
	v-24.8c0-0.7-0.6-1.3-1.3-1.3h-7.4c-0.7,0-1.3,0.6-1.3,1.3v25.4C182.2,195.6,188.5,200.4,200.9,200.4"/>
</svg>
