<?xml version="1.0" encoding="utf-8"?>
<!-- Generator: Adobe Illustrator 25.0.1, SVG Export Plug-In . SVG Version: 6.00 Build 0)  -->
<svg version="1.1" id="Capa_1" xmlns="http://www.w3.org/2000/svg" xmlns:xlink="http://www.w3.org/1999/xlink" x="0px" y="0px"
	 viewBox="0 0 172.4 33.6" style="enable-background:new 0 0 172.4 33.6;" xml:space="preserve">
<style type="text/css">
	.st0{clip-path:url(#SVGID_2_);fill:#FFD506;}
</style>
<g>
	<defs>
		<path id="SVGID_1_" d="M17.8,1.1L23,11.5l11.6,1.7l-8.4,8.1l2,11.4l-10.3-5.4L7.5,32.7l2-11.4l-8.4-8.1l11.6-1.7L17.8,1.1z
			 M52,1.1l5.2,10.4l11.6,1.7l-8.4,8.1l2,11.4L52,27.3l-10.3,5.4l2-11.4l-8.4-8.1l11.6-1.7L52,1.1z M86.2,1.1l5.2,10.4l11.6,1.7
			l-8.4,8.1l2,11.4l-10.3-5.4l-10.3,5.4l2-11.4l-8.4-8.1L81,11.5L86.2,1.1z M120.4,1.1l5.2,10.4l11.6,1.7l-8.4,8.1l2,11.4l-10.3-5.4
			L110,32.7l2-11.4l-8.4-8.1l11.6-1.7L120.4,1.1z M154.6,1.1l5.2,10.4l11.6,1.7l-8.4,8.1l2,11.4l-10.3-5.4l-10.3,5.4l2-11.4
			l-8.4-8.1l11.6-1.7L154.6,1.1z"/>
	</defs>
	<clipPath id="SVGID_2_">
		<use xlink:href="#SVGID_1_"  style="overflow:visible;"/>
	</clipPath>
	<rect x="0.7" y="0.1" class="st0" width="171.7" height="33.5"/>
	<use xlink:href="#SVGID_1_"  style="overflow:visible;fill:none;stroke:#FFD506;stroke-miterlimit:10;"/>
</g>
</svg>
